<?xml version="1.0" encoding="UTF-8" standalone="no"?>
<svg
   xmlns:dc="http://purl.org/dc/elements/1.1/"
   xmlns:cc="http://creativecommons.org/ns#"
   xmlns:rdf="http://www.w3.org/1999/02/22-rdf-syntax-ns#"
   xmlns:svg="http://www.w3.org/2000/svg"
   xmlns="http://www.w3.org/2000/svg"
   version="1.1"
   id="svg2"
   xml:space="preserve"
   width="344.26266"
   height="384.05734"
   viewBox="0 0 344.26266 384.05734"><metadata
     id="metadata8"><rdf:RDF><cc:Work
         rdf:about=""><dc:format>image/svg+xml</dc:format><dc:type
           rdf:resource="http://purl.org/dc/dcmitype/StillImage" /><dc:title></dc:title></cc:Work></rdf:RDF></metadata><defs
     id="defs6" /><g
     id="g10"
     transform="matrix(1.3333333,0,0,-1.3333333,0,384.05733)"><g
       id="g12"
       transform="translate(139.31,3.517)"><g
         id="g14"><g
           id="g16"><g
             id="g18"><g
               id="g20"><path
                 d="M 117.85728,56.09377 -0.56697,-3.11833 -95.24426,67.89005"
                 style="fill:none;stroke:#000000;stroke-width:0.79701;stroke-linecap:butt;stroke-linejoin:miter;stroke-miterlimit:10;stroke-dasharray:none;stroke-opacity:1"
                 id="path22" /><g
                 id="g24"
                 transform="matrix(0.89442,0.44722,-0.44722,0.89442,117.85728,56.09375)"><g
                   id="g26"><path
                     d="M -1.55415,2.0722 C -1.42464,1.29512 0,0.1295 0.38852,0 0,-0.1295 -1.42464,-1.29512 -1.55415,-2.0722"
                     style="fill:none;stroke:#000000;stroke-width:0.6376;stroke-linecap:round;stroke-linejoin:round;stroke-miterlimit:10;stroke-dasharray:none;stroke-opacity:1"
                     id="path28" /></g></g><g
                 id="g30"
                 transform="matrix(-0.80385,0.60292,-0.60292,-0.80385,-95.24425,67.89005)"><g
                   id="g32"><path
                     d="M -1.55415,2.0722 C -1.42464,1.29512 0,0.1295 0.38852,0 0,-0.1295 -1.42464,-1.29512 -1.55415,-2.0722"
                     style="fill:none;stroke:#000000;stroke-width:0.6376;stroke-linecap:round;stroke-linejoin:round;stroke-miterlimit:10;stroke-dasharray:none;stroke-opacity:1"
                     id="path34" /></g></g><g
                 id="g36"><g
                   id="g38"
                   transform="matrix(1,0.5,-0.8,0.6,62.521,20.417)"><g
                     id="g40"><g
                       id="g42"
                       transform="translate(-201.831,-23.934)"><text
                         transform="matrix(1,0,0,-1,201.831,23.934)"
                         style="font-variant:normal;font-weight:500;font-size:9.9626px;font-family:'CMU Serif';-inkscape-font-specification:'CMU Serif Medium Italic';writing-mode:lr-tb;fill:#000000;fill-opacity:1;fill-rule:nonzero;stroke:none;font-style:italic;font-stretch:normal;"
                         id="text46"><tspan
                           x="0"
                           y="0"
                           id="tspan44"
                           style="-inkscape-font-specification:'CMU Serif Medium Italic';font-family:'CMU Serif';font-weight:500;font-style:italic;font-stretch:normal;font-variant:normal;">x</tspan></text><g
                         id="g48"
                         transform="translate(201.831,23.934)" /></g></g><g
                     id="g50"
                     transform="translate(-62.521,-20.417)" /></g></g><g
                 id="g52"><g
                   id="g54"
                   transform="matrix(1,0.5,-0.8,0.6,-56.209,27.412)"><g
                     id="g56"><g
                       id="g58"
                       transform="translate(-83.101,-30.929)"><text
                         transform="matrix(1,0,0,-1,83.101,30.929)"
                         style="font-variant:normal;font-weight:500;font-size:9.9626px;font-family:'CMU Serif';-inkscape-font-specification:'CMU Serif Medium Italic';writing-mode:lr-tb;fill:#000000;fill-opacity:1;fill-rule:nonzero;stroke:none;font-style:italic;font-stretch:normal;"
                         id="text62"><tspan
                           x="0"
                           y="0"
                           id="tspan60"
                           style="-inkscape-font-specification:'CMU Serif Medium Italic';font-family:'CMU Serif';font-weight:500;font-style:italic;font-stretch:normal;font-variant:normal;">y</tspan></text><g
                         id="g64"
                         transform="translate(83.101,30.929)" /></g></g><g
                     id="g66"
                     transform="translate(56.209,-27.412)" /></g></g></g><g
               id="g68"><path
                 d="M 0,0 -90.71013,68.03302 22.67711,124.72664 113.38724,56.69362 Z"
                 style="fill:#ffffff;fill-opacity:0.6;fill-rule:nonzero;stroke:none"
                 id="path70" /></g><g
               id="g72"><path
                 d="M 0,0 113.38724,56.69362 M -2.83466,2.126 110.55257,58.81963 M -5.66934,4.25203 107.71788,60.94565 M -8.50403,6.37805 104.8832,63.07167 M -11.33871,8.50409 102.04852,65.19771 M -14.17339,10.63011 99.21384,67.32373 M -17.00807,12.75612 96.37915,69.44974 M -19.84276,14.88216 93.54446,71.57578 M -22.67744,17.00818 90.7098,73.7018 M -25.51212,19.1342 87.8751,75.82782 M -28.3468,21.26024 85.04042,77.95386 M -31.18149,23.38626 82.20573,80.07988 M -34.01616,25.51227 79.37108,82.20589 M -36.85083,27.6383 76.53639,84.33192 M -39.68552,29.76433 73.7017,86.45795 M -42.5202,31.89035 70.86702,88.58397 M -45.35489,34.01637 68.03235,90.71 M -48.18956,36.1424 65.19766,92.83601 M -51.02425,38.26842 62.36298,94.96204 M -53.85893,40.39444 59.52829,97.08806 M -56.69362,42.52048 56.69362,99.2141 M -59.52829,44.6465 53.85893,101.34012 M -62.36298,46.77252 51.02425,103.46614 M -65.19765,48.89854 48.18958,105.59216 M -68.03233,51.02457 45.3549,107.71819 M -70.867,53.15059 42.52022,109.84421 M -73.70169,55.27663 39.68553,111.97025 M -76.53638,57.40265 36.85085,114.09627 M -79.37106,59.52867 34.01617,116.22229 M -82.20573,61.6547 31.18149,118.34831 M -85.04042,63.78072 28.3468,120.47433 M -87.8751,65.90674 25.51212,122.60036 M -90.7098,68.03276 22.67744,124.7264 M 0,0 -90.71013,68.03302 M 3.54333,1.77167 -87.16678,69.8047 M 7.08667,3.54333 -83.62344,71.57637 M 10.63,5.315 -80.08011,73.34804 M 14.17334,7.08667 -76.53677,75.1197 M 17.71667,8.85834 -72.99344,76.89137 M 21.26003,10.63 -69.45009,78.66304 M 24.80336,12.40167 -65.90675,80.43471 M 28.3467,14.17334 -62.36342,82.20638 M 31.89003,15.945 -58.82008,83.97804 M 35.43336,17.71667 -55.27675,85.74971 M 38.97672,19.48836 -51.7334,87.52138 M 42.52005,21.26003 -48.19006,89.29306 M 46.06339,23.0317 -44.64673,91.06473 M 49.60672,24.80336 -41.1034,92.8364 M 53.15005,26.57503 -37.56006,94.60806 M 56.6934,28.3467 -34.01671,96.37973 M 60.23674,30.11836 -30.47337,98.1514 M 63.78008,31.89003 -26.93004,99.92307 M 67.32341,33.6617 -23.3867,101.69473 M 70.86674,35.43336 -19.84337,103.4664 M 74.4101,37.20505 -16.30002,105.23807 M 77.95343,38.97672 -12.75668,107.00975 M 81.49677,40.74838 -9.21335,108.78142 M 85.0401,42.52005 -5.67001,110.55309 M 88.58344,44.29172 -2.12668,112.32475 M 92.12679,46.06339 1.41666,114.09642 M 95.67012,47.83505 4.95999,115.86809 M 99.21346,49.60672 8.50333,117.63976 M 102.75679,51.37839 12.04666,119.41142 M 106.30013,53.15005 15.59,121.18309 M 109.84348,54.92174 19.13335,122.95476 M 113.38681,56.6934 22.67668,124.72644"
                 style="fill:none;stroke:#cccccc;stroke-width:0.09962;stroke-linecap:butt;stroke-linejoin:miter;stroke-miterlimit:10;stroke-dasharray:none;stroke-opacity:1"
                 id="path74" /></g><g
               id="g76"><path
                 d="M 0,0 113.38724,56.69362 M -5.66936,4.25204 107.71786,60.94566 M -11.33875,8.5041 102.0485,65.19772 M -17.0081,12.75615 96.37912,69.44977 M -22.67749,17.00821 90.70975,73.70183 M -28.34686,21.26028 85.04036,77.9539 M -34.01624,25.51233 79.371,82.20595 M -39.68561,29.76439 73.70161,86.45801 M -45.35498,34.01643 68.03226,90.71007 M -51.02435,38.26851 62.36287,94.96213 M -56.69374,42.52057 56.6935,99.21419 M -62.3631,46.77261 51.02412,103.46623 M -68.03249,51.02467 45.35475,107.71829 M -73.70186,55.27675 39.68536,111.97037 M -79.37123,59.5288 34.016,116.22241 M -85.0406,63.78085 28.34662,120.47447 M -90.70998,68.0329 22.67726,124.72652 M 0,0 -90.71013,68.03302 M 7.08669,3.54333 -83.62343,71.57637 M 14.17337,7.08669 -76.53674,75.11972 M 21.26007,10.63002 -69.45004,78.66306 M 28.34676,14.17337 -62.36336,82.2064 M 35.43344,17.7167 -55.27667,85.74974 M 42.52014,21.26007 -48.18997,89.2931 M 49.60683,24.8034 -41.10329,92.83644 M 56.69353,28.34676 -34.01659,96.37979 M 63.78021,31.89009 -26.9299,99.92313 M 70.8669,35.43344 -19.84322,103.46648 M 77.9536,38.97679 -12.75652,107.00983 M 85.04028,42.52014 -5.66983,110.55318 M 92.12698,46.06348 1.41684,114.09651 M 99.21367,49.60683 8.50354,117.63986 m 97.79681,-64.4897 -90.71012,68.03304 m 97.79682,-64.48967 -90.71012,68.03302"
                 style="fill:none;stroke:#818181;stroke-width:0.09962;stroke-linecap:butt;stroke-linejoin:miter;stroke-miterlimit:10;stroke-dasharray:none;stroke-opacity:1"
                 id="path78" /></g><g
               id="g80"><path
                 d="M 0,0 -90.71013,68.03302 22.67711,124.72664 113.38724,56.69362 Z"
                 style="fill:none;stroke:#333333;stroke-width:0.3985;stroke-linecap:butt;stroke-linejoin:miter;stroke-miterlimit:10;stroke-dasharray:none;stroke-opacity:1"
                 id="path82" /></g><g
               id="g84"><path
                 d="m 39.69257,41.14198 -2.77794,2.08348 3.47239,1.73621 2.77796,-2.08348 z"
                 style="fill:#ff3333;fill-opacity:1;fill-rule:nonzero;stroke:#000000;stroke-width:0.3985;stroke-linecap:butt;stroke-linejoin:miter;stroke-miterlimit:10;stroke-dasharray:none;stroke-opacity:1"
                 id="path86" /></g><g
               id="g88"><path
                 d="m 39.68547,41.10298 -5.66937,4.25208 7.08668,3.54333 5.66938,-4.25207 z"
                 style="fill:none;stroke:#000000;stroke-width:0.79701;stroke-linecap:butt;stroke-linejoin:miter;stroke-miterlimit:10;stroke-dasharray:none;stroke-opacity:1"
                 id="path90" /></g><g
               id="g92"><path
                 d="m 41.81602,45.00227 c -0.44018,0.33014 -1.24305,0.37474 -1.7933,0.09964 -0.55023,-0.27511 -0.63943,-0.76577 -0.19925,-1.09591 0.44019,-0.33014 1.24307,-0.37474 1.79331,-0.09964 0.55022,0.27511 0.63943,0.76577 0.19924,1.09591 z"
                 style="fill:#ff8080;fill-opacity:1;fill-rule:nonzero;stroke:#ff8080;stroke-width:0.3985;stroke-linecap:butt;stroke-linejoin:miter;stroke-miterlimit:10;stroke-dasharray:none;stroke-opacity:1"
                 id="path94" /></g><g
               id="g96"><path
                 d="m -27.63126,60.63074 -2.77795,2.08348 3.47243,1.7362 2.77794,-2.08348 z"
                 style="fill:#3333ff;fill-opacity:1;fill-rule:nonzero;stroke:#000000;stroke-width:0.3985;stroke-linecap:butt;stroke-linejoin:miter;stroke-miterlimit:10;stroke-dasharray:none;stroke-opacity:1"
                 id="path98" /></g><g
               id="g100"><path
                 d="m -28.347,56.69402 -5.66939,4.25207 7.08669,3.54335 5.66939,-4.25206 z"
                 style="fill:none;stroke:#000000;stroke-width:0.79701;stroke-linecap:butt;stroke-linejoin:miter;stroke-miterlimit:10;stroke-dasharray:none;stroke-opacity:1"
                 id="path102" /></g><g
               id="g104"><path
                 d="m -26.89781,62.52089 c -0.44019,0.33015 -1.24306,0.37476 -1.79331,0.09964 -0.55023,-0.27512 -0.63943,-0.76576 -0.19925,-1.09592 0.44019,-0.33014 1.24307,-0.37474 1.79331,-0.09962 0.55023,0.2751 0.63943,0.76576 0.19925,1.0959 z"
                 style="fill:#8080ff;fill-opacity:1;fill-rule:nonzero;stroke:#8080ff;stroke-width:0.3985;stroke-linecap:butt;stroke-linejoin:miter;stroke-miterlimit:10;stroke-dasharray:none;stroke-opacity:1"
                 id="path106" /></g><g
               id="g108"><g
                 id="g110"
                 transform="matrix(1,0.5,-0.8,0.6,-111.194,48.661)"><g
                   id="g112"><g
                     id="g114"
                     transform="translate(-28.116,-52.178)"><text
                       transform="matrix(1,0,0,-1,28.116,52.178)"
                       style="font-variant:normal;font-weight:500;font-size:9.9626px;font-family:'CMU Serif';-inkscape-font-specification:'CMU Serif Medium Italic';writing-mode:lr-tb;fill:#000000;fill-opacity:1;fill-rule:nonzero;stroke:none;font-style:italic;font-stretch:normal;"
                       id="text118"><tspan
                         x="0"
                         y="0"
                         id="tspan116"
                         style="-inkscape-font-specification:'CMU Serif Medium Italic';font-family:'CMU Serif';font-weight:500;font-style:italic;font-stretch:normal;font-variant:normal;">l</tspan></text><text
                       transform="matrix(1,0,0,-1,34.052,52.178)"
                       style="font-variant:normal;font-weight:normal;font-size:9.9626px;font-family:'CMU Serif';-inkscape-font-specification:'CMU Serif';writing-mode:lr-tb;fill:#000000;fill-opacity:1;fill-rule:nonzero;stroke:none;font-style:normal;font-stretch:normal;"
                       id="text122"><tspan
                         x="0 10.518513"
                         y="0"
                         id="tspan120">=5</tspan></text><g
                       id="g124"
                       transform="translate(28.116,52.178)" /></g></g><g
                   id="g126"
                   transform="translate(111.194,-48.661)" /></g></g></g><g
             id="g128"><path
               d="M 40.81946,204.09694 V 34.47435"
               style="fill:none;stroke:#ff0000;stroke-width:0.3985;stroke-linecap:butt;stroke-linejoin:miter;stroke-miterlimit:10;stroke-dasharray:2.98883, 2.98883;stroke-dashoffset:0;stroke-opacity:1"
               id="path130" /><g
               id="g132"
               transform="rotate(-90,37.646905,-3.172555)"><g
                 id="g134"><path
                   d="M -1.19551,1.59401 C -1.09587,0.99626 0,0.09961 0.29886,0 0,-0.09961 -1.09587,-0.99626 -1.19551,-1.59401"
                   style="fill:none;stroke:#ff0000;stroke-width:0.31879;stroke-linecap:round;stroke-linejoin:round;stroke-miterlimit:10;stroke-dasharray:none;stroke-opacity:1"
                   id="path136" /></g></g></g><g
             id="g138"><path
               d="M -27.9216,221.10518 V 51.4826"
               style="fill:none;stroke:#0000ff;stroke-width:0.3985;stroke-linecap:butt;stroke-linejoin:miter;stroke-miterlimit:10;stroke-dasharray:2.98883, 2.98883;stroke-dashoffset:0;stroke-opacity:1"
               id="path140" /><g
               id="g142"
               transform="rotate(-90,11.7805,39.7021)"><g
                 id="g144"><path
                   d="M -1.19551,1.59401 C -1.09587,0.99626 0,0.09961 0.29886,0 0,-0.09961 -1.09587,-0.99626 -1.19551,-1.59401"
                   style="fill:none;stroke:#0000ff;stroke-width:0.31879;stroke-linecap:round;stroke-linejoin:round;stroke-miterlimit:10;stroke-dasharray:none;stroke-opacity:1"
                   id="path146" /></g></g></g><g
             id="g148"><g
               id="g150"><path
                 d="M 0,39.85107 -90.71013,107.8841 22.67711,164.57771 113.38724,96.5447 Z"
                 style="fill:#ffffff;fill-opacity:0.6;fill-rule:nonzero;stroke:none"
                 id="path152" /></g><g
               id="g154"><path
                 d="M 0,39.85107 113.38724,96.5447 M -5.66936,44.10312 107.71786,100.79674 M -11.33875,48.35518 102.0485,105.0488 M -17.0081,52.60722 96.37912,109.30084 M -22.67749,56.85928 90.70975,113.5529 M -28.34686,61.11136 85.04036,117.80498 M -34.01624,65.3634 79.371,122.05702 M -39.68561,69.61546 73.70161,126.30908 M -45.35498,73.86751 68.03226,130.56114 M -51.02435,78.11958 62.36287,134.8132 M -56.69374,82.37164 56.6935,139.06526 M -62.3631,86.62369 51.02412,143.3173 M -68.03249,90.87575 45.35475,147.56937 M -73.70186,95.12782 39.68536,151.82144 M -79.37123,99.37987 34.016,156.07349 M -85.0406,103.63193 28.34662,160.32555 M -90.70998,107.88397 22.67726,164.57759 M 0,39.85107 -90.71013,107.8841 M 7.08669,43.39441 -83.62343,111.42744 m 97.7968,-64.48968 -90.71011,68.03304 m 97.79681,-64.4897 -90.71011,68.03303 m 97.7968,-64.48969 -90.71012,68.03304 m 97.7968,-64.4897 -90.71011,68.03303 m 97.79681,-64.48966 -90.71011,68.03303 m 97.7968,-64.4897 -90.71012,68.03304 M 56.69353,68.19783 -34.01659,136.23087 M 63.78021,71.74117 -26.9299,139.7742 M 70.8669,75.28452 -19.84322,143.31755 M 77.9536,78.82787 -12.75652,146.8609 M 85.04028,82.37122 -5.66983,150.40425 M 92.12698,85.91455 1.41684,153.94759 M 99.21367,89.4579 8.50354,157.49094 m 97.79681,-64.4897 -90.71012,68.03303 M 113.38705,96.5446 22.67693,164.57762"
                 style="fill:none;stroke:#cccccc;stroke-width:0.09962;stroke-linecap:butt;stroke-linejoin:miter;stroke-miterlimit:10;stroke-dasharray:none;stroke-opacity:1"
                 id="path156" /></g><g
               id="g158"><path
                 d="M 0,39.85107 113.38724,96.5447 m -124.726,-48.1895 113.38724,56.69361 m -124.726,-48.1895 113.38724,56.69362 m -124.726,-48.1895 113.38724,56.69362 M -45.35504,73.86755 68.0322,130.56119 M -56.6938,82.37169 56.69344,139.0653 m -124.726,-48.18949 113.38724,56.69362 m -124.726,-48.1895 113.38723,56.69362 M -90.71008,107.88405 22.67715,164.57767 M 0,39.85107 -90.71013,107.8841 M 14.17339,46.93776 -76.53673,114.9708 M 28.34679,54.02446 -62.36333,122.0575 M 42.52019,61.11116 -48.18993,129.1442 M 56.69359,68.19786 -34.01653,136.2309 M 70.86697,75.28455 -19.84314,143.31758 M 85.04037,82.37126 -5.66974,150.4043 M 99.21378,89.45795 8.50365,157.49098 M 113.38718,96.54466 22.67705,164.57768"
                 style="fill:none;stroke:#818181;stroke-width:0.09962;stroke-linecap:butt;stroke-linejoin:miter;stroke-miterlimit:10;stroke-dasharray:none;stroke-opacity:1"
                 id="path160" /></g><g
               id="g162"><path
                 d="M 0,39.85107 -90.71013,107.8841 22.67711,164.57771 113.38724,96.5447 Z"
                 style="fill:none;stroke:#333333;stroke-width:0.3985;stroke-linecap:butt;stroke-linejoin:miter;stroke-miterlimit:10;stroke-dasharray:none;stroke-opacity:1"
                 id="path164" /></g><g
               id="g166"><path
                 d="m 39.69966,81.03209 -5.55589,4.16693 6.94483,3.47241 5.55589,-4.16694 z"
                 style="fill:#ff3333;fill-opacity:1;fill-rule:nonzero;stroke:#000000;stroke-width:0.3985;stroke-linecap:butt;stroke-linejoin:miter;stroke-miterlimit:10;stroke-dasharray:none;stroke-opacity:1"
                 id="path168" /></g><g
               id="g170"><path
                 d="M 45.35486,76.702 34.0161,85.20613 48.18948,92.29282 59.52824,83.7887 Z"
                 style="fill:none;stroke:#000000;stroke-width:0.79701;stroke-linecap:butt;stroke-linejoin:miter;stroke-miterlimit:10;stroke-dasharray:none;stroke-opacity:1"
                 id="path172" /></g><g
               id="g174"><path
                 d="m 41.81602,84.85335 c -0.44018,0.33014 -1.24305,0.37474 -1.7933,0.09964 -0.55023,-0.27512 -0.63943,-0.76578 -0.19925,-1.09592 0.44019,-0.33014 1.24307,-0.37474 1.79331,-0.09964 0.55022,0.27512 0.63943,0.76578 0.19924,1.09592 z"
                 style="fill:#ff8080;fill-opacity:1;fill-rule:nonzero;stroke:#ff8080;stroke-width:0.3985;stroke-linecap:butt;stroke-linejoin:miter;stroke-miterlimit:10;stroke-dasharray:none;stroke-opacity:1"
                 id="path176" /></g><g
               id="g178"><path
                 d="m -28.33281,96.62312 -5.55591,4.16695 6.94482,3.47241 5.55591,-4.16693 z"
                 style="fill:#3333ff;fill-opacity:1;fill-rule:nonzero;stroke:#000000;stroke-width:0.3985;stroke-linecap:butt;stroke-linejoin:miter;stroke-miterlimit:10;stroke-dasharray:none;stroke-opacity:1"
                 id="path180" /></g><g
               id="g182"><path
                 d="m -28.347,96.54509 -11.33878,8.50415 14.17341,7.0867 11.33877,-8.50414 z"
                 style="fill:none;stroke:#000000;stroke-width:0.79701;stroke-linecap:butt;stroke-linejoin:miter;stroke-miterlimit:10;stroke-dasharray:none;stroke-opacity:1"
                 id="path184" /></g><g
               id="g186"><path
                 d="m -26.89781,102.37196 c -0.44019,0.33016 -1.24306,0.37476 -1.79331,0.0996 -0.55023,-0.27511 -0.63943,-0.76576 -0.19925,-1.09591 0.44019,-0.33014 1.24307,-0.37474 1.79331,-0.0996 0.55023,0.2751 0.63943,0.76576 0.19925,1.0959 z"
                 style="fill:#8080ff;fill-opacity:1;fill-rule:nonzero;stroke:#8080ff;stroke-width:0.3985;stroke-linecap:butt;stroke-linejoin:miter;stroke-miterlimit:10;stroke-dasharray:none;stroke-opacity:1"
                 id="path188" /></g><g
               id="g190"><g
                 id="g192"
                 transform="matrix(1,0.5,-0.8,0.6,-111.194,88.511)"><g
                   id="g194"><g
                     id="g196"
                     transform="translate(-28.116,-92.028)"><text
                       transform="matrix(1,0,0,-1,28.116,92.028)"
                       style="font-variant:normal;font-weight:500;font-size:9.9626px;font-family:'CMU Serif';-inkscape-font-specification:'CMU Serif Medium Italic';writing-mode:lr-tb;fill:#000000;fill-opacity:1;fill-rule:nonzero;stroke:none;font-style:italic;font-stretch:normal;"
                       id="text200"><tspan
                         x="0"
                         y="0"
                         id="tspan198"
                         style="-inkscape-font-specification:'CMU Serif Medium Italic';font-family:'CMU Serif';font-weight:500;font-style:italic;font-stretch:normal;font-variant:normal;">l</tspan></text><text
                       transform="matrix(1,0,0,-1,34.052,92.028)"
                       style="font-variant:normal;font-weight:normal;font-size:9.9626px;font-family:'CMU Serif';-inkscape-font-specification:'CMU Serif';writing-mode:lr-tb;fill:#000000;fill-opacity:1;fill-rule:nonzero;stroke:none;font-style:normal;font-stretch:normal;"
                       id="text204"><tspan
                         x="0 10.518513"
                         y="0"
                         id="tspan202">=4</tspan></text><g
                       id="g206"
                       transform="translate(28.116,92.028)" /></g></g><g
                   id="g208"
                   transform="translate(111.194,-88.511)" /></g></g></g><g
             id="g210"><path
               d="M 40.81946,204.09694 V 34.47435"
               style="fill:none;stroke:#ff0000;stroke-width:0.3985;stroke-linecap:butt;stroke-linejoin:miter;stroke-miterlimit:10;stroke-dasharray:2.98883, 2.98883;stroke-dashoffset:0;stroke-opacity:1"
               id="path212" /><g
               id="g214"
               transform="rotate(-90,37.646905,-3.172555)"><g
                 id="g216"><path
                   d="M -1.19551,1.59401 C -1.09587,0.99626 0,0.09961 0.29886,0 0,-0.09961 -1.09587,-0.99626 -1.19551,-1.59401"
                   style="fill:none;stroke:#ff0000;stroke-width:0.31879;stroke-linecap:round;stroke-linejoin:round;stroke-miterlimit:10;stroke-dasharray:none;stroke-opacity:1"
                   id="path218" /></g></g></g><g
             id="g220"><path
               d="M -27.9216,221.10518 V 51.4826"
               style="fill:none;stroke:#0000ff;stroke-width:0.3985;stroke-linecap:butt;stroke-linejoin:miter;stroke-miterlimit:10;stroke-dasharray:2.98883, 2.98883;stroke-dashoffset:0;stroke-opacity:1"
               id="path222" /><g
               id="g224"
               transform="rotate(-90,11.7805,39.7021)"><g
                 id="g226"><path
                   d="M -1.19551,1.59401 C -1.09587,0.99626 0,0.09961 0.29886,0 0,-0.09961 -1.09587,-0.99626 -1.19551,-1.59401"
                   style="fill:none;stroke:#0000ff;stroke-width:0.31879;stroke-linecap:round;stroke-linejoin:round;stroke-miterlimit:10;stroke-dasharray:none;stroke-opacity:1"
                   id="path228" /></g></g></g><g
             id="g230"><g
               id="g232"><path
                 d="m 0,79.70215 -90.71013,68.03302 113.38724,56.69362 90.71013,-68.03302 z"
                 style="fill:#ffffff;fill-opacity:0.6;fill-rule:nonzero;stroke:none"
                 id="path234" /></g><g
               id="g236"><path
                 d="m 0,79.70215 113.38724,56.69362 m -124.726,-48.1895 113.38724,56.69362 M -22.67752,96.71039 90.70972,153.404 m -124.726,-48.18949 113.38724,56.69362 m -124.726,-48.1895 113.38724,56.69363 m -124.726,-48.1895 113.38724,56.69362 m -124.726,-48.1895 113.38724,56.69362 M -79.37132,139.231 34.01591,195.92462 M -90.71008,147.73512 22.67715,204.42874 M 0,79.70215 -90.71013,147.73517 M 14.17339,86.78883 -76.53673,154.82187 M 28.34679,93.87553 -62.36333,161.90857 m 104.88352,-60.94634 -90.71012,68.03304 m 104.88352,-60.94634 -90.71012,68.03304 m 104.8835,-60.94635 -90.71011,68.03304 M 85.04037,122.22234 -5.66974,190.25537 M 99.21378,129.30902 8.50365,197.34206 m 104.88353,-60.94632 -90.71013,68.03302"
                 style="fill:none;stroke:#cccccc;stroke-width:0.09962;stroke-linecap:butt;stroke-linejoin:miter;stroke-miterlimit:10;stroke-dasharray:none;stroke-opacity:1"
                 id="path238" /></g><g
               id="g240"><path
                 d="m 0,79.70215 113.38724,56.69362 M -22.67752,96.71039 90.70972,153.404 M -45.35506,113.71864 68.03218,170.41228 M -68.0326,130.72691 45.35464,187.42053 M -90.70215,147.7292 22.68507,204.42282 M 0,79.70215 -90.71013,147.73517 M 28.3468,93.87553 -62.36331,161.90857 M 56.69362,108.04895 -34.0165,176.08199 M 85.04042,122.22235 -5.6697,190.25539 m 119.04697,-53.86461 -90.71013,68.03303"
                 style="fill:none;stroke:#818181;stroke-width:0.09962;stroke-linecap:butt;stroke-linejoin:miter;stroke-miterlimit:10;stroke-dasharray:none;stroke-opacity:1"
                 id="path242" /></g><g
               id="g244"><path
                 d="m 0,79.70215 -90.71013,68.03302 113.38724,56.69362 90.71013,-68.03302 z"
                 style="fill:none;stroke:#333333;stroke-width:0.3985;stroke-linecap:butt;stroke-linejoin:miter;stroke-miterlimit:10;stroke-dasharray:none;stroke-opacity:1"
                 id="path246" /></g><g
               id="g248"><path
                 d="m 45.38324,116.70912 -11.11179,8.33388 13.88967,6.94482 11.11178,-8.33387 z"
                 style="fill:#ff3333;fill-opacity:1;fill-rule:nonzero;stroke:#000000;stroke-width:0.3985;stroke-linecap:butt;stroke-linejoin:miter;stroke-miterlimit:10;stroke-dasharray:none;stroke-opacity:1"
                 id="path250" /></g><g
               id="g252"><path
                 d="M 56.69362,108.04895 34.0161,125.0572 62.3629,139.23059 85.04042,122.22235 Z"
                 style="fill:none;stroke:#000000;stroke-width:0.79701;stroke-linecap:butt;stroke-linejoin:miter;stroke-miterlimit:10;stroke-dasharray:none;stroke-opacity:1"
                 id="path254" /></g><g
               id="g256"><path
                 d="m 41.81602,124.70442 c -0.44018,0.33014 -1.24305,0.37474 -1.7933,0.0996 -0.55023,-0.27511 -0.63943,-0.76578 -0.19925,-1.09591 0.44019,-0.33015 1.24307,-0.37475 1.79331,-0.0996 0.55022,0.27512 0.63943,0.76578 0.19924,1.09592 z"
                 style="fill:#ff8080;fill-opacity:1;fill-rule:nonzero;stroke:#ff8080;stroke-width:0.3985;stroke-linecap:butt;stroke-linejoin:miter;stroke-miterlimit:10;stroke-dasharray:none;stroke-opacity:1"
                 id="path258" /></g><g
               id="g260"><path
                 d="m -28.31863,136.55222 -11.11179,8.33389 13.88968,6.94484 11.11177,-8.33389 z"
                 style="fill:#3333ff;fill-opacity:1;fill-rule:nonzero;stroke:#000000;stroke-width:0.3985;stroke-linecap:butt;stroke-linejoin:miter;stroke-miterlimit:10;stroke-dasharray:none;stroke-opacity:1"
                 id="path262" /></g><g
               id="g264"><path
                 d="m -17.00824,127.89204 -22.67754,17.00827 28.34682,14.17341 22.67752,-17.00826 z"
                 style="fill:none;stroke:#000000;stroke-width:0.79701;stroke-linecap:butt;stroke-linejoin:miter;stroke-miterlimit:10;stroke-dasharray:none;stroke-opacity:1"
                 id="path266" /></g><g
               id="g268"><path
                 d="m -26.89781,142.22304 c -0.44019,0.33015 -1.24306,0.37476 -1.79331,0.0996 -0.55023,-0.27512 -0.63943,-0.76576 -0.19925,-1.09592 0.44019,-0.33014 1.24307,-0.37474 1.79331,-0.0996 0.55023,0.2751 0.63943,0.76576 0.19925,1.0959 z"
                 style="fill:#8080ff;fill-opacity:1;fill-rule:nonzero;stroke:#8080ff;stroke-width:0.3985;stroke-linecap:butt;stroke-linejoin:miter;stroke-miterlimit:10;stroke-dasharray:none;stroke-opacity:1"
                 id="path270" /></g><g
               id="g272"><g
                 id="g274"
                 transform="matrix(1,0.5,-0.8,0.6,-111.194,128.362)"><g
                   id="g276"><g
                     id="g278"
                     transform="translate(-28.116,-131.879)"><text
                       transform="matrix(1,0,0,-1,28.116,131.879)"
                       style="font-variant:normal;font-weight:500;font-size:9.9626px;font-family:'CMU Serif';-inkscape-font-specification:'CMU Serif Medium Italic';writing-mode:lr-tb;fill:#000000;fill-opacity:1;fill-rule:nonzero;stroke:none;font-style:italic;font-stretch:normal;"
                       id="text282"><tspan
                         x="0"
                         y="0"
                         id="tspan280"
                         style="-inkscape-font-specification:'CMU Serif Medium Italic';font-family:'CMU Serif';font-weight:500;font-style:italic;font-stretch:normal;font-variant:normal;">l</tspan></text><text
                       transform="matrix(1,0,0,-1,34.052,131.879)"
                       style="font-variant:normal;font-weight:normal;font-size:9.9626px;font-family:'CMU Serif';-inkscape-font-specification:'CMU Serif';writing-mode:lr-tb;fill:#000000;fill-opacity:1;fill-rule:nonzero;stroke:none;font-style:normal;font-stretch:normal;"
                       id="text286"><tspan
                         x="0 10.518513"
                         y="0"
                         id="tspan284">=3</tspan></text><g
                       id="g288"
                       transform="translate(28.116,131.879)" /></g></g><g
                   id="g290"
                   transform="translate(111.194,-128.362)" /></g></g></g><g
             id="g292"><path
               d="M 40.81946,204.09694 V 34.47435"
               style="fill:none;stroke:#ff0000;stroke-width:0.3985;stroke-linecap:butt;stroke-linejoin:miter;stroke-miterlimit:10;stroke-dasharray:2.98883, 2.98883;stroke-dashoffset:0;stroke-opacity:1"
               id="path294" /><g
               id="g296"
               transform="rotate(-90,37.646905,-3.172555)"><g
                 id="g298"><path
                   d="M -1.19551,1.59401 C -1.09587,0.99626 0,0.09961 0.29886,0 0,-0.09961 -1.09587,-0.99626 -1.19551,-1.59401"
                   style="fill:none;stroke:#ff0000;stroke-width:0.31879;stroke-linecap:round;stroke-linejoin:round;stroke-miterlimit:10;stroke-dasharray:none;stroke-opacity:1"
                   id="path300" /></g></g></g><g
             id="g302"><path
               d="M -27.9216,221.10518 V 51.4826"
               style="fill:none;stroke:#0000ff;stroke-width:0.3985;stroke-linecap:butt;stroke-linejoin:miter;stroke-miterlimit:10;stroke-dasharray:2.98883, 2.98883;stroke-dashoffset:0;stroke-opacity:1"
               id="path304" /><g
               id="g306"
               transform="rotate(-90,11.7805,39.7021)"><g
                 id="g308"><path
                   d="M -1.19551,1.59401 C -1.09587,0.99626 0,0.09961 0.29886,0 0,-0.09961 -1.09587,-0.99626 -1.19551,-1.59401"
                   style="fill:none;stroke:#0000ff;stroke-width:0.31879;stroke-linecap:round;stroke-linejoin:round;stroke-miterlimit:10;stroke-dasharray:none;stroke-opacity:1"
                   id="path310" /></g></g></g><g
             id="g312"><g
               id="g314"><path
                 d="m 0,119.55322 -90.71013,68.03302 113.38724,56.69362 90.71013,-68.03302 z"
                 style="fill:#ffffff;fill-opacity:0.6;fill-rule:nonzero;stroke:none"
                 id="path316" /></g><g
               id="g318"><path
                 d="m 0,119.55322 113.38724,56.69362 M -22.67752,136.56146 90.70972,193.25508 M -45.35506,153.56972 68.03218,210.26335 M -68.0326,170.57799 45.35464,227.2716 M -90.70215,187.58028 22.68507,244.2739 M 0,119.55322 -90.71013,187.58624 M 28.3468,133.72661 -62.36331,201.75964 M 56.69362,147.90002 -34.0165,215.93306 M 85.04042,162.07343 -5.6697,230.10646 m 119.04697,-53.86461 -90.71013,68.03304"
                 style="fill:none;stroke:#cccccc;stroke-width:0.09962;stroke-linecap:butt;stroke-linejoin:miter;stroke-miterlimit:10;stroke-dasharray:none;stroke-opacity:1"
                 id="path320" /></g><g
               id="g322"><path
                 d="m 0,119.55322 113.38724,56.69362 M -45.35506,153.56972 68.03218,210.26335 M -90.70215,187.58028 22.68507,244.2739 M 0,119.55322 -90.71013,187.58624 M 56.69362,147.90002 -34.0165,215.93306 m 147.39377,-39.69121 -90.71013,68.03304"
                 style="fill:none;stroke:#818181;stroke-width:0.09962;stroke-linecap:butt;stroke-linejoin:miter;stroke-miterlimit:10;stroke-dasharray:none;stroke-opacity:1"
                 id="path324" /></g><g
               id="g326"><path
                 d="m 0,119.55322 -90.71013,68.03302 113.38724,56.69362 90.71013,-68.03302 z"
                 style="fill:none;stroke:#333333;stroke-width:0.3985;stroke-linecap:butt;stroke-linejoin:miter;stroke-miterlimit:10;stroke-dasharray:none;stroke-opacity:1"
                 id="path328" /></g><g
               id="g330"><path
                 d="m 56.75029,148.21165 -22.22424,16.66828 27.78018,13.8901 22.22424,-16.66828 z"
                 style="fill:#ff3333;fill-opacity:1;fill-rule:nonzero;stroke:#000000;stroke-width:0.3985;stroke-linecap:butt;stroke-linejoin:miter;stroke-miterlimit:10;stroke-dasharray:none;stroke-opacity:1"
                 id="path332" /></g><g
               id="g334"><path
                 d="m 56.69362,147.90002 -45.35506,34.01651 56.69362,28.34682 45.35506,-34.01651 z"
                 style="fill:none;stroke:#000000;stroke-width:0.79701;stroke-linecap:butt;stroke-linejoin:miter;stroke-miterlimit:10;stroke-dasharray:none;stroke-opacity:1"
                 id="path336" /></g><g
               id="g338"><path
                 d="m 41.81602,164.5555 c -0.44018,0.33014 -1.24305,0.37474 -1.7933,0.0996 -0.55023,-0.27512 -0.63943,-0.76578 -0.19925,-1.09592 0.44019,-0.33014 1.24307,-0.37474 1.79331,-0.0996 0.55022,0.27512 0.63943,0.76578 0.19924,1.09592 z"
                 style="fill:#ff8080;fill-opacity:1;fill-rule:nonzero;stroke:#ff8080;stroke-width:0.3985;stroke-linecap:butt;stroke-linejoin:miter;stroke-miterlimit:10;stroke-dasharray:none;stroke-opacity:1"
                 id="path340" /></g><g
               id="g342"><path
                 d="m -16.95158,168.05476 -22.22425,16.66829 27.78018,13.89009 22.22423,-16.66829 z"
                 style="fill:#3333ff;fill-opacity:1;fill-rule:nonzero;stroke:#000000;stroke-width:0.3985;stroke-linecap:butt;stroke-linejoin:miter;stroke-miterlimit:10;stroke-dasharray:none;stroke-opacity:1"
                 id="path344" /></g><g
               id="g346"><path
                 d="m -45.35506,153.56972 -45.35507,34.01652 56.69363,28.34682 45.35506,-34.01653 z"
                 style="fill:none;stroke:#000000;stroke-width:0.79701;stroke-linecap:butt;stroke-linejoin:miter;stroke-miterlimit:10;stroke-dasharray:none;stroke-opacity:1"
                 id="path348" /></g><g
               id="g350"><path
                 d="m -26.89781,182.07411 c -0.44019,0.33016 -1.24306,0.37476 -1.79331,0.0996 -0.55023,-0.27511 -0.63943,-0.76576 -0.19925,-1.09591 0.44019,-0.33014 1.24307,-0.37474 1.79331,-0.0996 0.55023,0.2751 0.63943,0.76576 0.19925,1.0959 z"
                 style="fill:#8080ff;fill-opacity:1;fill-rule:nonzero;stroke:#8080ff;stroke-width:0.3985;stroke-linecap:butt;stroke-linejoin:miter;stroke-miterlimit:10;stroke-dasharray:none;stroke-opacity:1"
                 id="path352" /></g><g
               id="g354"><g
                 id="g356"
                 transform="matrix(1,0.5,-0.8,0.6,-111.194,168.212)"><g
                   id="g358"><g
                     id="g360"
                     transform="translate(-28.116,-171.729)"><text
                       transform="matrix(1,0,0,-1,28.116,171.729)"
                       style="font-variant:normal;font-weight:500;font-size:9.9626px;font-family:'CMU Serif';-inkscape-font-specification:'CMU Serif Medium Italic';writing-mode:lr-tb;fill:#000000;fill-opacity:1;fill-rule:nonzero;stroke:none;font-style:italic;font-stretch:normal;"
                       id="text364"><tspan
                         x="0"
                         y="0"
                         id="tspan362"
                         style="-inkscape-font-specification:'CMU Serif Medium Italic';font-family:'CMU Serif';font-weight:500;font-style:italic;font-stretch:normal;font-variant:normal;">l</tspan></text><text
                       transform="matrix(1,0,0,-1,34.052,171.729)"
                       style="font-variant:normal;font-weight:normal;font-size:9.9626px;font-family:'CMU Serif';-inkscape-font-specification:'CMU Serif';writing-mode:lr-tb;fill:#000000;fill-opacity:1;fill-rule:nonzero;stroke:none;font-style:normal;font-stretch:normal;"
                       id="text368"><tspan
                         x="0 10.518513"
                         y="0"
                         id="tspan366">=2</tspan></text><g
                       id="g370"
                       transform="translate(28.116,171.729)" /></g></g><g
                   id="g372"
                   transform="translate(111.194,-168.212)" /></g></g></g><g
             id="g374"><path
               d="M 40.81946,204.09694 V 34.47435"
               style="fill:none;stroke:#ff0000;stroke-width:0.3985;stroke-linecap:butt;stroke-linejoin:miter;stroke-miterlimit:10;stroke-dasharray:2.98883, 2.98883;stroke-dashoffset:0;stroke-opacity:1"
               id="path376" /><g
               id="g378"
               transform="rotate(-90,37.646905,-3.172555)"><g
                 id="g380"><path
                   d="M -1.19551,1.59401 C -1.09587,0.99626 0,0.09961 0.29886,0 0,-0.09961 -1.09587,-0.99626 -1.19551,-1.59401"
                   style="fill:none;stroke:#ff0000;stroke-width:0.31879;stroke-linecap:round;stroke-linejoin:round;stroke-miterlimit:10;stroke-dasharray:none;stroke-opacity:1"
                   id="path382" /></g></g></g><g
             id="g384"><path
               d="M -27.9216,221.10518 V 51.4826"
               style="fill:none;stroke:#0000ff;stroke-width:0.3985;stroke-linecap:butt;stroke-linejoin:miter;stroke-miterlimit:10;stroke-dasharray:2.98883, 2.98883;stroke-dashoffset:0;stroke-opacity:1"
               id="path386" /><g
               id="g388"
               transform="rotate(-90,11.7805,39.7021)"><g
                 id="g390"><path
                   d="M -1.19551,1.59401 C -1.09587,0.99626 0,0.09961 0.29886,0 0,-0.09961 -1.09587,-0.99626 -1.19551,-1.59401"
                   style="fill:none;stroke:#0000ff;stroke-width:0.31879;stroke-linecap:round;stroke-linejoin:round;stroke-miterlimit:10;stroke-dasharray:none;stroke-opacity:1"
                   id="path392" /></g></g></g><g
             id="g394"><g
               id="g396"><path
                 d="m 0,159.4043 -90.71013,68.03302 113.38724,56.69362 90.71013,-68.03302 z"
                 style="fill:#ffffff;fill-opacity:0.6;fill-rule:nonzero;stroke:none"
                 id="path398" /></g><g
               id="g400"><path
                 d="m 0,159.4043 113.38724,56.69362 M -45.35506,193.42079 68.03218,250.11443 M -90.70215,227.43135 22.68507,284.12497 M 0,159.4043 -90.71013,227.43732 M 56.69362,187.7511 -34.0165,255.78413 m 147.39377,-39.6912 -90.71013,68.03303"
                 style="fill:none;stroke:#cccccc;stroke-width:0.09962;stroke-linecap:butt;stroke-linejoin:miter;stroke-miterlimit:10;stroke-dasharray:none;stroke-opacity:1"
                 id="path402" /></g><g
               id="g404"><path
                 d="m 0,159.4043 113.38724,56.69362 M -90.70215,227.43135 22.68507,284.12497 M 0,159.4043 -90.71013,227.43732 m 204.0874,-11.34439 -90.71013,68.03303"
                 style="fill:none;stroke:#818181;stroke-width:0.09962;stroke-linecap:butt;stroke-linejoin:miter;stroke-miterlimit:10;stroke-dasharray:none;stroke-opacity:1"
                 id="path406" /></g><g
               id="g408"><path
                 d="m 0,159.4043 -90.71013,68.03302 113.38724,56.69362 90.71013,-68.03302 z"
                 style="fill:none;stroke:#333333;stroke-width:0.3985;stroke-linecap:butt;stroke-linejoin:miter;stroke-miterlimit:10;stroke-dasharray:none;stroke-opacity:1"
                 id="path410" /></g><g
               id="g412"><path
                 d="M 56.80695,188.37437 12.35849,221.71092 67.91884,249.4911 112.3673,216.15457 Z"
                 style="fill:#ff3333;fill-opacity:1;fill-rule:nonzero;stroke:#000000;stroke-width:0.3985;stroke-linecap:butt;stroke-linejoin:miter;stroke-miterlimit:10;stroke-dasharray:none;stroke-opacity:1"
                 id="path414" /></g><g
               id="g416"><path
                 d="m 0,159.4043 -90.71013,68.03302 113.38724,56.69362 90.71013,-68.03302 z"
                 style="fill:none;stroke:#000000;stroke-width:0.79701;stroke-linecap:butt;stroke-linejoin:miter;stroke-miterlimit:10;stroke-dasharray:none;stroke-opacity:1"
                 id="path418" /></g><g
               id="g420"><path
                 d="m 41.81602,204.40657 c -0.44018,0.33014 -1.24305,0.37474 -1.7933,0.0996 -0.55023,-0.27511 -0.63943,-0.76578 -0.19925,-1.09591 0.44019,-0.33015 1.24307,-0.37475 1.79331,-0.0996 0.55022,0.27512 0.63943,0.76578 0.19924,1.09592 z"
                 style="fill:#ff8080;fill-opacity:1;fill-rule:nonzero;stroke:#ff8080;stroke-width:0.3985;stroke-linecap:butt;stroke-linejoin:miter;stroke-miterlimit:10;stroke-dasharray:none;stroke-opacity:1"
                 id="path422" /></g><g
               id="g424"><path
                 d="m -45.24173,194.04408 -44.44846,33.33655 55.56035,27.7802 44.44844,-33.33657 z"
                 style="fill:#3333ff;fill-opacity:1;fill-rule:nonzero;stroke:#000000;stroke-width:0.3985;stroke-linecap:butt;stroke-linejoin:miter;stroke-miterlimit:10;stroke-dasharray:none;stroke-opacity:1"
                 id="path426" /></g><g
               id="g428"><path
                 d="m 0,159.4043 -90.71013,68.03302 113.38724,56.69362 90.71013,-68.03302 z"
                 style="fill:none;stroke:#000000;stroke-width:0.79701;stroke-linecap:butt;stroke-linejoin:miter;stroke-miterlimit:10;stroke-dasharray:none;stroke-opacity:1"
                 id="path430" /></g><g
               id="g432"><path
                 d="m -26.89781,221.92519 c -0.44019,0.33015 -1.24306,0.37475 -1.79331,0.0996 -0.55023,-0.27512 -0.63943,-0.76577 -0.19925,-1.09592 0.44019,-0.33014 1.24307,-0.37474 1.79331,-0.0996 0.55023,0.27511 0.63943,0.76577 0.19925,1.09591 z"
                 style="fill:#8080ff;fill-opacity:1;fill-rule:nonzero;stroke:#8080ff;stroke-width:0.3985;stroke-linecap:butt;stroke-linejoin:miter;stroke-miterlimit:10;stroke-dasharray:none;stroke-opacity:1"
                 id="path434" /></g><g
               id="g436"><g
                 id="g438"
                 transform="matrix(1,0.5,-0.8,0.6,-111.194,208.063)"><g
                   id="g440"><g
                     id="g442"
                     transform="translate(-28.116,-211.58)"><text
                       transform="matrix(1,0,0,-1,28.116,211.58)"
                       style="font-variant:normal;font-weight:500;font-size:9.9626px;font-family:'CMU Serif';-inkscape-font-specification:'CMU Serif Medium Italic';writing-mode:lr-tb;fill:#000000;fill-opacity:1;fill-rule:nonzero;stroke:none;font-style:italic;font-stretch:normal;"
                       id="text446"><tspan
                         x="0"
                         y="0"
                         id="tspan444"
                         style="-inkscape-font-specification:'CMU Serif Medium Italic';font-family:'CMU Serif';font-weight:500;font-style:italic;font-stretch:normal;font-variant:normal;">l</tspan></text><text
                       transform="matrix(1,0,0,-1,34.052,211.58)"
                       style="font-variant:normal;font-weight:normal;font-size:9.9626px;font-family:'CMU Serif';-inkscape-font-specification:'CMU Serif';writing-mode:lr-tb;fill:#000000;fill-opacity:1;fill-rule:nonzero;stroke:none;font-style:normal;font-stretch:normal;"
                       id="text450"><tspan
                         x="0 10.518513"
                         y="0"
                         id="tspan448">=1</tspan></text><g
                       id="g452"
                       transform="translate(28.116,211.58)" /></g></g><g
                   id="g454"
                   transform="translate(111.194,-208.063)" /></g></g></g><g
             id="g456"><path
               d="M 40.81946,204.09694 V 34.47435"
               style="fill:none;stroke:#ff0000;stroke-width:0.3985;stroke-linecap:butt;stroke-linejoin:miter;stroke-miterlimit:10;stroke-dasharray:2.98883, 2.98883;stroke-dashoffset:0;stroke-opacity:1"
               id="path458" /><g
               id="g460"
               transform="rotate(-90,37.646905,-3.172555)"><g
                 id="g462"><path
                   d="M -1.19551,1.59401 C -1.09587,0.99626 0,0.09961 0.29886,0 0,-0.09961 -1.09587,-0.99626 -1.19551,-1.59401"
                   style="fill:none;stroke:#ff0000;stroke-width:0.31879;stroke-linecap:round;stroke-linejoin:round;stroke-miterlimit:10;stroke-dasharray:none;stroke-opacity:1"
                   id="path464" /></g></g></g><g
             id="g466"><path
               d="M -27.9216,221.10518 V 51.4826"
               style="fill:none;stroke:#0000ff;stroke-width:0.3985;stroke-linecap:butt;stroke-linejoin:miter;stroke-miterlimit:10;stroke-dasharray:2.98883, 2.98883;stroke-dashoffset:0;stroke-opacity:1"
               id="path468" /><g
               id="g470"
               transform="rotate(-90,11.7805,39.7021)"><g
                 id="g472"><path
                   d="M -1.19551,1.59401 C -1.09587,0.99626 0,0.09961 0.29886,0 0,-0.09961 -1.09587,-0.99626 -1.19551,-1.59401"
                   style="fill:none;stroke:#0000ff;stroke-width:0.31879;stroke-linecap:round;stroke-linejoin:round;stroke-miterlimit:10;stroke-dasharray:none;stroke-opacity:1"
                   id="path474" /></g></g></g></g></g></g></g></svg>
