<svg version="1.1" xmlns="http://www.w3.org/2000/svg" viewBox="0 0 854.8148797393083 435.9219263189414" width="854.8148797393083" height="435.9219263189414">
  <!-- svg-source:excalidraw -->
  
  <defs>
    <style class="style-fonts">
      @font-face {
        font-family: "Virgil";
        src: url("https://excalidraw.com/Virgil.woff2");
      }
      @font-face {
        font-family: "Cascadia";
        src: url("https://excalidraw.com/Cascadia.woff2");
      }
    </style>
  </defs>
  <rect x="0" y="0" width="854.8148797393083" height="435.9219263189414" fill="#ffffff"></rect><g stroke-linecap="round" transform="translate(165.5563098045032 155.91811178647632) rotate(346.62171082844606 10 10)"><path d="M1.26 5.07 C1.26 5.07, 1.26 5.07, 1.26 5.07 M1.26 5.07 C1.26 5.07, 1.26 5.07, 1.26 5.07 M0.62 10.34 C3.72 8.23, 6.39 6.16, 9.79 0.53 M1.22 11.42 C2.97 9.29, 4.61 7.54, 9.16 1.82 M2.77 15.19 C5.75 12.43, 9.95 7.28, 14.38 2.05 M4.16 14.24 C6.98 10.57, 10.9 7.09, 14.53 2.14 M5.69 18.39 C9.19 16.55, 10.43 13.5, 16.74 2.55 M4.88 19.75 C10.34 13.63, 14.68 7.84, 17.69 4.49 M7.76 18.97 C13.38 14.17, 16.38 12.8, 20.42 5.13 M9.03 20.41 C13.17 15.5, 17.81 10.36, 20.92 7.34 M13.78 21.05 C14.9 19.45, 17.72 17.84, 21.49 13.27 M13.02 22.24 C16.28 18.43, 19.09 15.42, 20.62 13.33 M4.7 18.98 C4.7 18.98, 4.7 18.98, 4.7 18.98 M4.7 18.98 C4.7 18.98, 4.7 18.98, 4.7 18.98 M11.71 18.81 C9.7 16.53, 6.59 14.36, 1.47 10.55 M11.84 20 C9.25 17.89, 7.15 15.3, 1.81 10.86 M15.82 18.74 C13.64 15.22, 8.07 10.34, 3.05 6.77 M15.97 18.78 C11.85 15.12, 8.31 10.9, 1.32 5.11 M18.37 15.79 C16.44 13, 10.66 6.32, 3.68 0.55 M19 15.72 C14.78 10.42, 8.51 7.3, 3.1 1.28 M18.96 10.4 C15.59 10.22, 14.62 5.54, 6.2 -1.67 M20.93 12.06 C16.51 8.62, 12.21 4.75, 7.54 0.55 M19.05 4.95 C17.98 4.7, 16.52 2.93, 14.42 0.53 M19.29 5.09 C17.31 3.83, 15.61 2.28, 14.08 0.35" stroke="#ffc9c9" stroke-width="0.5" fill="none"></path><path d="M6.96 -0.11 C8.81 -0.84, 11.68 0.43, 13.56 1.12 C15.45 1.81, 17.19 2.22, 18.28 4.04 C19.37 5.85, 20.32 9.65, 20.11 12 C19.91 14.34, 18.56 16.68, 17.03 18.11 C15.49 19.54, 12.99 20.46, 10.9 20.57 C8.82 20.69, 6.2 20.26, 4.53 18.82 C2.85 17.39, 1.4 14.24, 0.85 11.95 C0.3 9.67, 0.19 7.19, 1.21 5.12 C2.24 3.06, 5.64 0.34, 7 -0.44 C8.35 -1.22, 9.1 0.02, 9.34 0.43 M11.24 0.35 C13.22 0.75, 14.97 2.82, 16.64 4.58 C18.31 6.34, 21.18 8.78, 21.27 10.91 C21.37 13.05, 18.74 15.69, 17.21 17.39 C15.67 19.08, 13.98 21.06, 12.07 21.07 C10.16 21.07, 7.62 18.84, 5.73 17.4 C3.85 15.96, 1.86 14.43, 0.78 12.43 C-0.3 10.43, -1.37 7.13, -0.74 5.42 C-0.1 3.72, 2.67 3.17, 4.6 2.19 C6.54 1.22, 9.51 -0.28, 10.87 -0.4 C12.24 -0.53, 12.68 1.31, 12.77 1.42" stroke="#1e1e1e" stroke-width="1" fill="none"></path></g><g stroke-linecap="round" transform="translate(29.55009306662879 139.83588279543443) rotate(346.62171082844606 51.57720947265625 51.57720947265625)"><path d="M18.3 11.93 C18.3 11.93, 18.3 11.93, 18.3 11.93 M18.3 11.93 C18.3 11.93, 18.3 11.93, 18.3 11.93 M3.2 35.08 C11.82 24.91, 19.49 15.85, 28.01 10.05 M4.37 35.64 C7.83 29.07, 13.64 23.2, 26.5 8.8 M2.74 44 C13.18 30.18, 23.76 16.49, 36.03 4.05 M3.1 41.94 C14.19 28.64, 23.86 17.64, 35.16 3.7 M2.32 48.53 C13.41 34.75, 25.89 22.73, 41.2 1.02 M0.86 48.86 C11.44 38.83, 18.58 29.63, 43.46 2.31 M0.75 57.9 C11.32 41.71, 26.98 27.04, 47.04 0.97 M0.52 57.09 C18.37 37.36, 35.51 18.01, 49.06 1.27 M0.21 63.35 C15.97 43.19, 32.61 25.38, 52.04 1.03 M0.73 62.72 C14.01 47.27, 26.54 32.77, 54.07 2.11 M3.08 64.75 C14.49 51.78, 25.16 38.15, 57.12 3.74 M2.11 66.09 C18.84 47.55, 35.65 28.35, 58.96 2.77 M5.99 71.38 C22.44 51, 40.34 29.18, 65.12 0.62 M5.66 69.65 C21.72 50.2, 39.65 29.58, 63.29 3.35 M7.27 73.51 C23.27 52.13, 41.95 31.27, 70.12 1.24 M7.57 73.75 C21.57 55.53, 37.13 37.96, 69.47 2.25 M7.04 76.93 C26.59 57.26, 40.77 37.8, 73 5.28 M9.62 78.31 C22.8 62.18, 35.84 46.81, 71.57 4.46 M12.01 81.55 C33.53 57.23, 57.29 28.52, 74.78 7.55 M11.3 81.55 C27.49 63.16, 44.33 43.77, 75.07 7.72 M14.19 85.43 C33.77 64.03, 49.38 40.58, 78.09 7.89 M12.97 85.23 C34.93 57.72, 58.88 30.76, 77.66 10.52 M17.09 89.87 C39.77 59.91, 64.26 30.44, 80.6 12.62 M15.26 87.85 C37.91 61.61, 60.85 37.37, 83 10.81 M17.75 88.2 C39.68 65.49, 59.4 45, 84.54 12.47 M19.56 90.63 C44.42 61.81, 69.87 33.62, 85.56 13.99 M20.89 90.87 C37.81 77.13, 50.92 57.2, 89.99 15.55 M23.46 92.72 C47.88 64.27, 71.6 36.1, 88.35 17.1 M24.28 94.49 C52.97 64.89, 74.7 36.65, 92.44 17.22 M26.48 93.41 C51.2 65.34, 77.68 37.06, 91.69 18.79 M28.93 95.4 C44.6 80.51, 57.46 64.67, 92.86 21.38 M29.59 97.88 C46.63 78.24, 63.34 59.37, 93.74 23.83 M33.8 97.21 C58.77 72.24, 79.88 41.51, 97.08 27.02 M32.26 97.88 C49.01 80.02, 64.31 62.97, 95.14 27.78 M33.94 100.43 C49.44 81.23, 67.35 64.71, 98.64 29.29 M35.97 101.48 C48.26 86.74, 61.75 71.86, 96.26 31.2 M40.51 100.41 C63.61 75.85, 84.94 50.25, 100.83 36.09 M40.57 102.26 C56.41 85.01, 70.48 66.19, 98.57 34.44 M47.72 100.81 C62.87 82.26, 81.27 65.12, 99.54 40.61 M46.53 102.83 C66.76 77.59, 87.34 54.31, 101.81 39.28 M52.78 103.54 C60.59 89.25, 72.89 73.86, 102.63 44.37 M51.27 101.97 C63.54 87.55, 77.01 71.78, 102.71 42.2 M57.4 102.61 C72.48 81.6, 91.22 61.68, 102.74 48.09 M55.98 102.68 C68.01 88.37, 80.33 75.33, 102.18 48.35 M61.87 100.97 C74.61 89.87, 83.62 73.98, 102.66 56.45 M62.06 102.08 C75.48 87.64, 87.05 72.15, 102 56.46 M69.8 96.5 C77.01 90.52, 83.79 81.47, 101.5 63.39 M71.21 97.67 C79.52 87.96, 89.75 75.61, 101.29 63.36 M77.07 93.44 C84.46 90.03, 89.19 82.62, 100.12 70.01 M78.69 95.81 C84.03 87.16, 91.37 80.2, 101.37 69.94 M11.39 84.44 C11.39 84.44, 11.39 84.44, 11.39 84.44 M11.39 84.44 C11.39 84.44, 11.39 84.44, 11.39 84.44 M35.37 101.16 C22.91 91.22, 12.14 79.75, 6.91 76.7 M35.56 100.6 C24.36 89.73, 13.24 81.06, 6.98 74.58 M43.14 99.31 C28.55 89.67, 15.04 75.74, 1.1 64.93 M42.14 100.05 C30.13 88.37, 16.68 78.74, 3.53 66.62 M48.89 102.1 C30.45 85.57, 13.96 71.36, -0.4 57.88 M48.22 99.44 C35.38 88.91, 23.07 78.68, 1.09 60.35 M54.74 101.28 C45.88 90.66, 34.03 83.4, 0.95 56.25 M56.07 101.75 C41.73 88.65, 26.61 76.48, 1.84 54.37 M62 100.8 C42.51 87.66, 25.3 71.49, 1.53 48.99 M61.43 100.63 C41.72 83.8, 20.08 64.83, 3.25 50.5 M64.83 98.33 C48.19 83.75, 31.43 67.42, 2.05 46.83 M64.69 100.11 C41.65 79.8, 18.26 57.65, 2.94 46.32 M71.46 98.14 C47.91 80.66, 28.01 60.98, 1.72 41.16 M70.32 98.6 C53.69 83.07, 36.88 69.54, 4.17 40.29 M73.6 97.36 C57.9 82.87, 43.59 71.26, 4.41 34.3 M73.7 97.33 C49.77 75.29, 23.75 52.17, 4.38 35.19 M78.15 93.54 C54.45 72.64, 26.92 49.49, 3.62 32.37 M77.14 95.06 C50.48 70.83, 22.42 47.05, 5.46 31.07 M82.62 92.21 C53.63 67.34, 21.46 42.34, 7.38 26.87 M82.65 93.8 C57.53 70.33, 33.44 50.09, 7.04 28.08 M84.57 92.44 C61.92 69.82, 41.54 53.42, 10.98 26.93 M85.73 91.54 C60.09 69.77, 35.41 48.59, 10.54 24.79 M86.77 88.45 C66.09 70.25, 41.81 48.99, 13.89 20.82 M87.88 87.94 C65.09 67.79, 40.94 47.99, 12.38 20.92 M90.23 85.7 C73.34 68.37, 57.8 53.5, 16.42 20.19 M89.95 83.71 C67.16 64.66, 42.82 43.82, 14.13 17.71 M91.78 79.94 C61.55 54.87, 33.26 29.61, 15.2 16.37 M93.08 81.69 C70.54 60.98, 49.36 43.44, 16.18 15.35 M97.08 77.35 C77.91 63.07, 64.19 52.13, 20.62 13.15 M96.05 78.22 C72.26 57.46, 49.4 38.34, 18.57 11.98 M97.99 72.84 C81.58 60.91, 66.01 46.22, 22.47 9.07 M98.01 73.57 C70.99 50.61, 44.29 28.68, 23.05 9.09 M100.1 72.84 C79.78 52.26, 60.68 36.75, 27.91 7.7 M100.33 71.88 C79.25 54.88, 59.94 36.3, 28.28 7.96 M100.08 65.66 C79.52 51.97, 60.58 31.05, 30.66 6.46 M101.28 67.7 C86.25 53.12, 69.19 39.96, 31.44 5.63 M102.89 62.28 C83.46 46.36, 64.08 27.91, 36.91 2.86 M101.65 61.93 C89.36 49.49, 74.31 38.18, 35.47 5.34 M102.77 57.28 C86 44.96, 72.61 28.42, 38.05 3.44 M103.01 56.88 C87.3 44.49, 70.14 30.06, 38.11 2.58 M100.88 51.07 C88.79 39.57, 72.2 27.05, 45.09 1.92 M103.73 51.68 C88.15 39.91, 72.41 25.23, 43.69 1.4 M102.22 46.8 C87.04 34.63, 75.65 22.6, 47.84 2.82 M103.24 47.34 C92.18 38.18, 80.92 27.25, 48.67 1.22 M105.11 43.91 C85.68 27.07, 67.22 10.33, 54.57 1.73 M103.86 43.48 C84.84 26.54, 66.32 11.28, 56.62 1.21 M99.32 33.11 C90.08 25.99, 83.01 21.68, 63.51 0.12 M98.25 33.41 C85.74 20.2, 70.46 9.23, 62.05 2.32 M96.14 24.35 C89.23 18.37, 82.59 15.96, 67.99 2.95 M93.84 23.31 C85.54 15.42, 76.85 8.06, 68.94 0.95" stroke="#ffc9c9" stroke-width="0.5" fill="none"></path><path d="M42.72 1.52 C50.46 -0.66, 60.58 -0.52, 68.63 2.36 C76.67 5.23, 85.34 12, 90.99 18.76 C96.65 25.52, 100.96 34.47, 102.57 42.9 C104.18 51.34, 103.49 61.24, 100.68 69.37 C97.87 77.5, 92.22 86.24, 85.7 91.69 C79.19 97.14, 70.14 100.72, 61.6 102.09 C53.05 103.47, 42.81 102.89, 34.44 99.95 C26.07 97, 17.06 90.89, 11.38 84.43 C5.7 77.97, 1.72 69.41, 0.36 61.21 C-1 53, 0.2 43.45, 3.22 35.2 C6.24 26.94, 11.18 17.62, 18.5 11.69 C25.83 5.76, 41.56 1.53, 47.15 -0.39 C52.74 -2.3, 51.89 -0.91, 52.03 0.19 M61.16 1.92 C69.54 2.31, 79.2 5.73, 85.73 10.95 C92.25 16.17, 97.78 25.11, 100.31 33.23 C102.84 41.35, 102.56 50.9, 100.91 59.65 C99.26 68.39, 95.88 79.08, 90.41 85.7 C84.93 92.32, 75.89 96.43, 68.06 99.38 C60.23 102.33, 51.75 104.91, 43.4 103.39 C35.06 101.86, 24.52 95.99, 17.98 90.24 C11.45 84.5, 7.06 76.62, 4.2 68.92 C1.34 61.22, -0.59 52.23, 0.83 44.04 C2.25 35.84, 7.21 26.78, 12.7 19.76 C18.19 12.73, 25.94 4.91, 33.78 1.88 C41.62 -1.15, 55.3 1.72, 59.74 1.58 C64.18 1.45, 60.38 0.34, 60.42 1.08" stroke="#1e1e1e" stroke-width="1" fill="none"></path></g><g stroke-linecap="round" transform="translate(278.8462518333731 166.24441271638972) rotate(346.62171082844606 23.278213500976562 23.278213500976562)"><path d="M1.81 13.5 C1.81 13.5, 1.81 13.5, 1.81 13.5 M1.81 13.5 C1.81 13.5, 1.81 13.5, 1.81 13.5 M0.45 22.52 C4.55 15.21, 5.53 13.03, 16 3.98 M0.97 20.91 C4.7 15.86, 9.01 11.24, 16.75 2.52 M1.4 26.42 C7.65 18.79, 15.38 9.7, 21.54 4.01 M0.93 27.88 C6.73 20.24, 12.58 12.66, 20.82 3.97 M2.05 32.24 C7.28 22.19, 16.86 15.31, 25.32 2.89 M1.99 31.37 C10.93 21.19, 20.78 9.09, 26.28 2.35 M3.96 36.04 C10.21 25.92, 18.08 20.81, 32.85 2.8 M5.46 33.78 C13.42 25.13, 22.14 13.32, 31.06 4.21 M9.12 37.46 C14.84 30.78, 21.37 25.01, 33.72 5.32 M8.38 37.13 C16.5 27.05, 25.84 14.85, 34.59 5 M11.47 40.07 C18.31 29.59, 27.66 23.32, 37.69 6.25 M9.38 40.65 C18.66 29.65, 27.65 18.66, 39.16 8.01 M12.3 42.41 C19.18 36.4, 24.55 29.55, 43.48 9.93 M13.36 43.89 C22.44 33.37, 30.8 23.17, 41.09 9.89 M16.99 44.29 C27.24 35.39, 34.38 22.79, 46.94 12.55 M16.69 44.24 C26.78 32.62, 37.12 22.22, 44.24 12.11 M21.26 44.41 C28.48 35.98, 36.27 30.48, 45.08 16.76 M20.67 46.69 C27.7 37.33, 34.81 30.12, 46.38 16.65 M27.09 46.36 C30.71 38.88, 36.69 32.84, 47.46 22.62 M25.9 46.97 C34.66 38.29, 41.21 27.99, 47.91 21.23 M33.58 42.96 C39.1 38.58, 42.81 33.98, 49.13 27.03 M34.42 44.04 C38.21 38.04, 41.06 34.34, 47.16 27.8 M9.88 41.99 C9.88 41.99, 9.88 41.99, 9.88 41.99 M9.88 41.99 C9.88 41.99, 9.88 41.99, 9.88 41.99 M18.35 43.41 C12.73 41.92, 10.63 39.01, -1.41 28.52 M17.73 44.56 C11.46 38.9, 6.37 32.9, -0.52 29.19 M28.07 45.44 C21.52 42.97, 15.98 37.54, 0.07 22.09 M25.66 45.98 C19.07 37.51, 9.43 31.99, 0.07 24.15 M31.13 45.96 C23.03 39.37, 14.74 32.3, 1.39 19.9 M30.67 44.97 C23.93 38.23, 17.82 33.77, 0.33 19.37 M32.9 40.9 C26.44 36.23, 20.19 28.26, 2.15 12.39 M33.94 43.03 C26.83 36.12, 19.24 29, 1.46 13.79 M40.73 41.77 C29.38 32.47, 20.05 23.11, 5.85 12.25 M38.05 41.23 C31.99 33.36, 23.06 28.77, 4.08 10 M40.37 39.85 C28.34 28.42, 18.17 16.96, 8.09 6.65 M41.72 37.48 C27.63 26.39, 14.87 15.22, 5.78 6.56 M44.2 34.39 C33.47 26.09, 21.63 13.62, 10.06 6.8 M43.4 34.95 C32.07 23.92, 20.22 14.55, 10.87 4.74 M46.91 32.15 C35.55 19.19, 21.26 8.78, 12.39 2.22 M45.29 30.73 C38.8 25.79, 33.01 18.5, 13.68 2.93 M48.43 27.02 C34.39 15.77, 24.68 7.91, 16.43 -2.48 M47.59 25.65 C38.41 18.8, 28.68 11.84, 16.12 -1.33 M47.87 21.53 C41.43 14.42, 32.45 8.57, 20.41 0.72 M48.82 22.87 C37.96 14.95, 27.66 5.51, 21.18 -1.05 M46.66 15.19 C41.53 11.99, 39.52 8.59, 27.82 0.84 M46.29 16.46 C43.59 11.58, 38.46 9.64, 29.69 1.14" stroke="#ffc9c9" stroke-width="0.5" fill="none"></path><path d="M13.3 1.57 C17.41 -0.69, 24.63 -0.04, 29.52 1.48 C34.41 2.99, 39.73 6.6, 42.64 10.67 C45.54 14.74, 47.33 20.91, 46.95 25.91 C46.56 30.9, 43.86 37.25, 40.35 40.65 C36.84 44.04, 30.97 46.03, 25.9 46.27 C20.84 46.51, 14.34 45.02, 9.99 42.09 C5.64 39.15, 1.19 33.38, -0.19 28.64 C-1.58 23.9, -1.32 18.16, 1.68 13.65 C4.69 9.13, 14.38 3.85, 17.82 1.55 C21.25 -0.76, 22.23 -0.3, 22.3 -0.16 M25.52 0.54 C30.45 0.43, 35.18 3.28, 38.77 6.74 C42.36 10.21, 46.2 16.69, 47.07 21.34 C47.94 26, 46.75 30.77, 44.01 34.69 C41.27 38.6, 35.81 43.29, 30.63 44.85 C25.45 46.4, 17.72 45.64, 12.94 44.01 C8.15 42.39, 4.19 39.51, 1.91 35.12 C-0.36 30.73, -2.01 22.54, -0.71 17.66 C0.6 12.78, 5.68 8.93, 9.76 5.84 C13.83 2.75, 21.14 0.07, 23.73 -0.89 C26.32 -1.84, 25.2 -0.66, 25.28 0.1" stroke="#1e1e1e" stroke-width="1" fill="none"></path></g><g stroke-linecap="round" transform="translate(588.3234263779807 187.17329976604145) rotate(346.62171082844606 78.05047607421875 78.05047607421875)"><path d="M15.87 32.35 C15.87 32.35, 15.87 32.35, 15.87 32.35 M15.87 32.35 C15.87 32.35, 15.87 32.35, 15.87 32.35 M8.22 46.91 C16.41 38.85, 23.65 29.7, 40.6 11.98 M7.56 47.32 C18.12 35.93, 27.87 24.9, 40.95 9.92 M3.79 59.59 C17.28 41.8, 36.09 24.33, 48.04 7.45 M2.41 59.28 C16.58 42.44, 30.73 26.8, 46.59 7.79 M2.56 67.36 C23.1 43.65, 42.17 21.75, 54.35 7.76 M1.35 66.11 C13.23 53.38, 24.63 39.34, 54.12 6.95 M3.62 74.22 C19.21 50.39, 40.42 30.48, 61.03 4.91 M1.61 71.76 C19.62 51.14, 37.88 30.58, 61.55 4.29 M2.55 80.67 C20.09 56.11, 39.61 38.31, 69.15 0.27 M1.57 77.88 C23.85 55.08, 42.84 31.74, 68.17 1.62 M0.88 85.56 C19.2 66.74, 33.94 48.66, 74.02 4.64 M1.64 85.78 C21.39 60.63, 43.59 37.44, 73.69 2.92 M0.91 90.65 C22.93 67.91, 42.29 44.11, 78.58 3 M1.34 92.19 C17.88 72.21, 35.36 54.22, 78.88 3.24 M4.44 96.41 C19.56 75.54, 36.97 58.46, 80.98 3.4 M3.41 95.17 C32.33 62.77, 59.06 30.95, 83.55 4.78 M5.67 97.4 C29.61 73.11, 55.04 44.7, 89.23 4.25 M5.06 98.68 C33.29 65.4, 60.94 33.27, 88.52 4.25 M8.46 102.5 C32.71 74.33, 56 44.99, 94.04 5.11 M6.56 102.96 C39.76 65.77, 74.93 27.47, 92.81 4.91 M7.21 105.76 C33.7 82.04, 56.79 56.39, 98.9 7.28 M8.47 106.51 C37.46 74.86, 64.41 42.55, 97.07 5.27 M11.58 112.47 C34.37 82.65, 60.96 54.36, 101.53 3.35 M11.71 110.35 C42.12 75.76, 72.84 39.95, 103.34 5.78 M13.31 115.7 C38.69 82.05, 66.42 51.88, 105.32 5.27 M12.71 115.7 C41.43 81.73, 71.54 47.35, 107.9 7.11 M13.61 119.37 C52.86 76.32, 88.37 32.8, 108.71 8.89 M14.15 119.22 C51.77 77.39, 89.23 33.17, 110.91 7.8 M17.3 123.58 C38.08 96.23, 58.88 73.07, 113.37 9.8 M15.45 123.47 C51.14 82.07, 87.63 40.91, 114.03 12.27 M20.86 126.89 C55.08 87.61, 86.6 46.1, 118.24 11.61 M18.13 127.35 C53.05 86.65, 88.48 46.64, 116.69 12.27 M21.95 128.91 C61.7 84.81, 99.39 42.83, 119.03 14.07 M21.75 129.9 C43.55 103.19, 66.34 80.33, 121.06 15.12 M24.81 131.12 C52.35 100.42, 82.18 67.21, 123.64 16.32 M24.57 133.19 C57.85 94.3, 90.72 56.43, 123.7 18.17 M26.31 133.63 C62.21 94.31, 96.84 51.16, 129.53 18.22 M27.98 134.32 C56.59 103.32, 84.23 69.96, 128.34 20.24 M31.47 139.32 C64.22 99.37, 94.92 64.79, 133.28 22.46 M29.4 137.63 C51.31 114.39, 71.05 91.13, 131.77 20.9 M33.54 140.33 C54.47 115.95, 80.33 88.56, 135.28 24.56 M32.59 140.44 C62.86 105.49, 92.07 71.41, 133.85 24.62 M36.06 143.18 C60.81 113.92, 87.34 85.05, 136.46 26.69 M35.22 144.24 C69.77 104.85, 103.86 63.84, 136.65 27.8 M37 147.26 C76.3 103.04, 113.48 62.92, 137.83 29.76 M39.21 146.41 C63.06 118.8, 88.53 90.82, 139.24 30.93 M41.54 147.49 C72.65 111.58, 102.35 78.46, 139.2 33.5 M42.91 146.97 C75.69 109.27, 108.16 70.99, 140.82 35.87 M45.53 150.05 C69.74 123.54, 87.64 99.87, 142.6 39.94 M46.91 149.52 C73.99 118.45, 101.46 87.36, 143.47 37.5 M52.82 149.23 C79.91 117, 109.93 79.97, 145.75 43.07 M50.73 150.23 C73.13 126.29, 94.84 100.13, 145.95 42.51 M55.51 151 C82.78 120, 114.35 84.39, 149.49 44.34 M55.34 150.52 C85.66 114.21, 118.19 76.78, 148.48 45.08 M59.94 153.55 C94.42 115.88, 126.64 75.96, 151.85 49.5 M60.58 151.84 C85.51 120.72, 112.64 89.95, 151.19 46.83 M62.86 154.36 C86.62 128.78, 106.88 106.95, 150.95 53.4 M63.63 153.82 C97.6 116.19, 129.66 77.88, 152.27 53.86 M69.47 154.74 C99.07 116.66, 136.53 76.94, 152.87 57.54 M68.39 155.05 C88.82 129.97, 111.22 102.8, 152.3 57.37 M69.63 159.47 C97.93 127.06, 125.21 95.35, 152.61 61.68 M70.04 157.76 C97.89 128.4, 123.98 97.96, 152.46 63.45 M75.12 156.98 C103.7 128.28, 125.83 98.43, 156.15 68.08 M77.67 156.26 C99.27 129.73, 121.9 104.12, 155.01 68.54 M81.99 158.33 C107.48 127.42, 132.68 103.28, 155.21 73.89 M82.93 157.03 C102.27 134.59, 121.49 111.89, 155.31 73.86 M87.78 156.87 C112.38 128.94, 136.63 100.45, 156.69 76.66 M88.62 154.55 C116.26 125.23, 143.74 94.32, 155.67 78.19 M93.09 154.9 C115.18 132.89, 139.24 108.55, 159.38 80.42 M94.62 155.1 C118.48 128.01, 142.76 99.33, 159.41 82.02 M102.9 152.42 C117.91 134.71, 133.74 115.58, 154.96 91.02 M102.51 153.69 C114.77 139.83, 126.58 126.39, 156.13 90.12 M112.77 148.48 C121.83 135.72, 131.14 125.45, 153.07 99.37 M112.12 148.53 C124.61 132.28, 139.33 117.24, 154.18 98.86 M122.31 143.51 C132.66 127.09, 145.61 113.64, 152.33 107.54 M120.42 143.56 C130.53 133.66, 137.42 125.4, 152.05 105.55 M38.62 146.11 C38.62 146.11, 38.62 146.11, 38.62 146.11 M38.62 146.11 C38.62 146.11, 38.62 146.11, 38.62 146.11 M48.72 148.47 C40.13 138.84, 30.19 131.25, 18.13 120.92 M48.82 149.77 C41.89 142.87, 34.02 136.13, 17.1 121.79 M58.72 151.56 C47.37 140.36, 36.62 132.59, 13.01 111.16 M57.97 152.17 C41.75 139.56, 26.75 125.13, 13.03 111.89 M69.21 155.13 C43.35 135.6, 22.82 115.93, 8.32 105.26 M68.07 155.71 C48.29 138.84, 28.9 123.17, 8.55 104.3 M70 154.97 C52.74 138.08, 34.2 124.88, -0.01 90.86 M70.56 152.66 C55.67 139.53, 41.3 126.72, 1.19 92.9 M77.07 152.63 C49.2 129.53, 23.32 105.12, 2.81 87.48 M77.16 153.32 C48.53 129.37, 22.4 106.64, 1.57 87.13 M81.16 151.37 C53.9 124.49, 23.87 98.72, 1.94 81.82 M80.75 151.15 C60.27 133.23, 38.77 115.53, 2.18 81.42 M87.01 149.49 C53.47 120.93, 20.47 92.27, 0.04 75.61 M88.02 152.21 C53.83 121.95, 18.73 93.88, 2.89 76.22 M91.27 151.34 C58.91 120.39, 25.22 89.99, 1.38 71.34 M91.7 149.33 C75.12 133.7, 55.32 119.55, 2.4 71.89 M95.99 148.11 C68.02 125.45, 39.17 96.21, 3.52 67.8 M97.34 149.11 C66.7 123.58, 36.22 95.53, 2.27 67.37 M103.99 150.16 C71.64 119.76, 42.67 96.29, 3.02 61.59 M103.11 149.33 C76.72 126.85, 51.68 103.2, 1.95 61.89 M106.85 146.52 C70.71 110.72, 32.16 80.69, 5.87 58.08 M107.1 146.66 C76.02 119.05, 43.78 90.3, 3.57 57.04 M108.81 145.13 C78.19 118.43, 47.4 89.26, 5.42 53.63 M109.54 144.06 C77.36 117.45, 46.32 88.53, 5.23 53.18 M115.75 141.73 C89.75 121.73, 65.04 99.83, 7.57 48.49 M115.16 143.76 C81.42 112.07, 48.38 84.07, 8.49 49.47 M116.84 142.12 C79.94 108.76, 44.85 80.71, 8.71 44.98 M119.13 140.76 C77.42 105.24, 37.44 71.22, 9.71 46.23 M122.22 139.72 C98.96 119.21, 76.19 101.73, 13.17 41.1 M122.18 138.51 C77.24 101.35, 33.61 63.85, 11.79 43.68 M126.75 139.06 C87.6 106.42, 53.91 74.45, 12.62 38.08 M126.58 137.54 C90.58 107.13, 55.62 75.65, 12.96 39.69 M128.87 135.46 C104.31 114.38, 76.34 89.64, 15.57 33.93 M130.43 135.3 C83.41 94.41, 37.65 54.45, 14.56 36.43 M133.57 133.86 C107.58 111.45, 78.96 86.86, 17.97 30.37 M132.92 132.18 C92.87 98.95, 52.86 64.22, 17.1 31.5 M135.62 127.66 C100.62 99.67, 67.01 68.76, 21.27 30.31 M134.94 128.49 C105.94 102.06, 75.55 76.54, 20.49 28.54 M136.44 128.4 C103.75 98.74, 69.32 67.56, 21.96 24.89 M138.27 127.27 C101.71 96.24, 67.48 67.58, 23.11 26.44 M140.3 121.91 C118.2 101.79, 94.27 82.57, 27.63 24.24 M139.15 122.63 C107.16 93.09, 71.6 63.14, 26.08 23.25 M142.81 120.55 C109.66 95.2, 80.22 68.18, 28.83 22.44 M143.06 119.13 C99.36 83.05, 56.41 45.06, 28.53 21.32 M145.8 114.82 C98 77.01, 52.79 38.38, 29.82 15.74 M145.03 117.52 C103.92 82.58, 64.37 46.64, 30.66 18.62 M145.77 113.51 C102.89 75.74, 59.28 38.59, 33.7 16.09 M148.34 114.14 C124.44 94.59, 100.94 73.77, 34.23 14.49 M147.84 110.01 C113.37 77.02, 72.7 44.53, 37.62 10.77 M149.89 109.26 C121.56 86.21, 94.93 62.74, 36.13 12.4 M148.69 105.16 C117.38 72.96, 81.47 42.73, 41.51 10.56 M151.42 105.18 C112.36 71.43, 71.12 36.92, 40.4 10.23 M151.99 102.78 C115.51 69.99, 78.27 37.32, 44.93 7.3 M152.35 101.88 C124.15 77.73, 96.36 52.83, 45.5 9.1 M152.34 97.99 C122.32 74.01, 96.69 48.8, 48.07 6.85 M152 96.48 C127.76 75.5, 101.35 52.25, 48.6 6.35 M155.44 93.36 C116.58 62.23, 81.63 30.08, 51.69 5.29 M153.15 93.59 C124.43 67.27, 93.75 41.02, 53.83 5 M155.56 88.51 C127.51 63.02, 95.19 37.26, 57.02 4.4 M155.82 88.04 C131.56 68.64, 107.5 47.52, 57.65 5.35 M154.95 83.66 C125.65 55.72, 91.65 26.83, 61.98 4.69 M156.07 84.58 C121.78 54.08, 88.23 24.29, 63.27 3.14 M157.3 81.2 C123.34 49.9, 85.48 20.89, 66.84 2.88 M157.74 80.63 C126.73 53.9, 97.67 27.28, 67.75 1.26 M156.12 74.62 C130.32 53.07, 106.54 28.8, 73.18 -1.19 M156.23 73.33 C133.57 55.99, 114.19 38.11, 71.26 -0.3 M154.04 66.62 C128.5 43.06, 105.08 23.61, 80.11 -0.38 M154.11 66.84 C135.89 50.33, 116.38 34.81, 78.66 0.01 M154.9 58.79 C134.64 41.5, 116.43 28.03, 85.35 2.15 M152.57 60.17 C138.3 48.98, 124.79 36.5, 86.92 0.76 M150.46 53.82 C135.48 39.66, 122.4 25.9, 93.77 4.29 M152.47 54.53 C140.79 43.95, 127.97 33.91, 92.99 3.15 M151.1 46.36 C131.49 33.48, 113.79 17.24, 99.78 4.03 M150.39 48.36 C135.87 32.3, 118.65 18.85, 100.57 3.06 M142.21 32.74 C128.02 20.13, 112.93 11.91, 104.54 0.96 M141.33 34.2 C129.79 24.72, 119.56 15.34, 104.62 2.88" stroke="#ffc9c9" stroke-width="0.5" fill="none"></path><path d="M103.2 4.78 C113.18 7.09, 123.37 14.22, 131.2 21.37 C139.04 28.52, 145.93 37.95, 150.19 47.69 C154.44 57.44, 156.82 69.37, 156.72 79.83 C156.63 90.28, 154.11 100.97, 149.61 110.4 C145.1 119.83, 137.91 129.47, 129.7 136.39 C121.49 143.3, 110.55 148.66, 100.35 151.9 C90.15 155.14, 78.82 156.78, 68.52 155.8 C58.21 154.82, 47.48 151.57, 38.53 146.03 C29.58 140.49, 20.97 131.41, 14.82 122.54 C8.67 113.68, 3.77 103.24, 1.63 92.83 C-0.51 82.43, -0.4 70.21, 1.98 60.12 C4.35 50.04, 9.53 40.69, 15.89 32.32 C22.25 23.95, 30.91 15.14, 40.13 9.89 C49.35 4.64, 59.68 1.32, 71.21 0.82 C82.74 0.32, 102.42 5.33, 109.3 6.91 C116.17 8.49, 113.16 9.38, 112.46 10.3 M56.47 2.06 C66.1 -1.71, 80.24 0.35, 90.81 1.94 C101.39 3.53, 110.99 6.09, 119.93 11.61 C128.88 17.13, 138.62 25.8, 144.49 35.04 C150.37 44.28, 153.57 56.3, 155.18 67.03 C156.79 77.75, 156.91 89.58, 154.17 99.38 C151.43 109.17, 145.6 117.64, 138.72 125.8 C131.84 133.96, 122.29 143.44, 112.91 148.35 C103.52 153.26, 92.81 154.81, 82.43 155.28 C72.05 155.74, 60.74 154.68, 50.65 151.14 C40.56 147.6, 29.29 141.4, 21.89 134.03 C14.5 126.65, 10.07 116.72, 6.28 106.88 C2.5 97.04, -1.01 85.87, -0.83 74.99 C-0.65 64.12, 2.35 51.28, 7.37 41.63 C12.4 31.98, 20.87 23.66, 29.3 17.09 C37.74 10.53, 53.38 4.43, 57.96 2.26 C62.55 0.08, 56.52 2.77, 56.83 4.04" stroke="#1e1e1e" stroke-width="1" fill="none"></path></g><g stroke-linecap="round" transform="translate(342.05031581423043 137.86417259626595) rotate(346.62171082844606 28.75543212890625 28.75543212890625)"><path d="M5.11 12.39 C5.11 12.39, 5.11 12.39, 5.11 12.39 M5.11 12.39 C5.11 12.39, 5.11 12.39, 5.11 12.39 M1.71 20.1 C9.2 14.58, 14.72 7.93, 17.57 3.84 M2.86 21.02 C9.1 14.07, 13.73 9.05, 18.74 4.41 M1.13 28.83 C6.89 23.56, 11.71 17.2, 23.02 5.97 M0.48 29.23 C7.81 21.58, 14.33 14.26, 23.37 3.91 M3.26 33.95 C9.88 23.76, 21.99 14.01, 28.49 3.71 M1.89 33.65 C9.88 23.91, 17.97 15.24, 27.04 4.04 M4.66 38.71 C16.25 24.97, 26.49 13.23, 32.83 6.28 M3.45 37.46 C10.02 30.96, 16.19 22.93, 32.6 5.47 M7.03 44.06 C14.33 30.02, 27.1 19.81, 37.54 5.7 M5.02 41.6 C14.95 30.28, 25.28 18.83, 38.06 5.07 M7.93 48.25 C16.71 33.43, 27.57 25.6, 43.04 4.08 M6.95 45.45 C19.4 33.71, 28.68 21.53, 42.06 5.42 M8.22 50.87 C18.84 40.94, 25.82 31.78, 46.6 9.95 M8.99 51.09 C18.8 37.78, 30.78 26.36, 46.27 8.23 M12.19 51.43 C23.93 41.15, 32.66 29.58, 49.19 10.57 M12.62 52.97 C20.13 42.93, 28.73 35.15, 49.49 10.82 M17.7 54.93 C23.55 44.43, 31.66 38.05, 50.28 12.49 M16.66 53.69 C29.92 38.73, 41.2 24.69, 52.85 13.87 M20.89 53.65 C30.67 45.05, 42.15 32.69, 56.55 15.6 M20.28 54.94 C32.46 41.03, 43.66 27.82, 55.85 15.6 M26.31 55.74 C35.55 45.14, 43.52 33.42, 59.4 18.72 M24.41 56.19 C37.05 42.31, 51.64 27.69, 58.17 18.53 M26.37 57.49 C37.49 51.25, 45.58 42.85, 59.67 26.18 M27.63 58.24 C38.19 48.14, 46.55 37.2, 57.84 24.17 M35.33 58.91 C39.89 49.72, 48.93 41.61, 57.7 27.53 M35.46 56.79 C42.59 48.39, 50.71 38.57, 59.52 29.96 M42.31 56.1 C46 48.3, 51.87 43.29, 56.9 34.73 M41.71 56.11 C46.49 49.94, 51.88 43.98, 59.48 36.58 M8.39 49.8 C8.39 49.8, 8.39 49.8, 8.39 49.8 M8.39 49.8 C8.39 49.8, 8.39 49.8, 8.39 49.8 M20.74 53.79 C15.82 49.31, 11.13 48.59, 3.95 39.34 M18.88 53.67 C13.05 48.87, 8.35 43.97, 4.61 41.81 M29.18 56.04 C19.47 49.27, 6.68 39.79, 1.73 31.01 M26.45 56.51 C17.63 46.66, 8.69 38.73, 0.19 31.68 M32.14 54.39 C22.31 43.92, 11.24 35.03, -0.04 27.27 M31.94 55.38 C24.85 47.98, 19.63 44.13, 2 28.33 M37.52 52.17 C27 46.88, 18.34 38.2, 2.67 22.56 M37.28 54.24 C26.44 43.23, 15.04 33.57, 2.73 24.42 M40.14 50.36 C27.24 40.08, 12.49 26.88, 6 18.27 M41.81 51.04 C31.95 43.89, 21.51 33.64, 4.81 20.29 M47.93 53.03 C34.5 37.92, 19.42 28.72, 6.44 15.65 M45.85 51.34 C38.93 43.29, 29.74 36.08, 4.92 14.09 M48.84 47.74 C37.47 40.39, 30.71 31, 7.94 10.69 M47.89 47.85 C35.96 36.87, 23.52 25.78, 6.52 10.76 M51.62 44.18 C38.93 35.13, 28.65 26.85, 10.14 7.08 M50.78 45.25 C36.66 32, 21.58 18.5, 10.33 8.19 M51.42 41.97 C38.33 26.7, 23.33 16.44, 12.53 4.42 M53.62 41.12 C43.26 32.05, 34.03 23.93, 13.94 5.59 M54.25 38.06 C44.77 26.73, 33.34 17.13, 14.91 2.41 M55.62 37.54 C42.77 26.32, 29.18 14.38, 16.53 4.78 M56.43 35.08 C51.17 25.79, 40.19 18.94, 19.32 3.11 M57.81 34.55 C47.19 24.98, 37.61 15.48, 20.19 0.67 M59 27.5 C45.04 21.54, 34.28 9.65, 23.49 0.5 M56.91 28.5 C49.71 22.46, 41.36 14.82, 23.69 -0.06 M56.21 21.86 C46.22 16.37, 41.1 6.5, 31.26 -1.35 M56.04 21.38 C45.87 14.73, 37.13 6.26, 30.26 -0.61 M55.16 16.99 C48.17 11.47, 39.72 4.25, 37.01 1.44 M55.8 15.28 C48.44 10.94, 43.04 6.33, 36.35 -1.22" stroke="#ffc9c9" stroke-width="0.5" fill="none"></path><path d="M20.55 2.01 C26.08 -0.08, 34.66 0.42, 40.4 2.84 C46.13 5.26, 52.13 11.18, 54.97 16.53 C57.8 21.88, 58.87 29.13, 57.41 34.95 C55.95 40.76, 51.38 47.78, 46.2 51.42 C41.02 55.07, 32.6 57.05, 26.35 56.83 C20.1 56.6, 13.01 54.01, 8.7 50.06 C4.39 46.12, 1.1 39.43, 0.49 33.17 C-0.12 26.91, 1 18.06, 5.02 12.49 C9.05 6.92, 20.63 1.86, 24.62 -0.27 C28.6 -2.4, 28.79 -0.98, 28.92 -0.27 M34.42 1.58 C40.46 1.94, 47.92 4.76, 51.82 9.18 C55.72 13.59, 58.23 21.88, 57.81 28.09 C57.4 34.29, 53.46 41.4, 49.34 46.41 C45.21 51.41, 39.09 57, 33.06 58.11 C27.03 59.22, 18.28 56.13, 13.18 53.05 C8.07 49.97, 4.44 45.47, 2.44 39.64 C0.45 33.81, -0.95 24.09, 1.2 18.06 C3.36 12.04, 9.96 6.21, 15.39 3.49 C20.81 0.77, 30.61 1.96, 33.76 1.75 C36.91 1.54, 34.4 2.21, 34.29 2.25" stroke="#1e1e1e" stroke-width="1" fill="none"></path></g><g stroke-linecap="round" transform="translate(397.321167984697 173.87569992030907) rotate(346.62171082844606 31.4940185546875 31.4940185546875)"><path d="M4.25 15.62 C4.25 15.62, 4.25 15.62, 4.25 15.62 M4.25 15.62 C4.25 15.62, 4.25 15.62, 4.25 15.62 M3.35 23.46 C7.16 19.01, 10.69 14.23, 21.57 1.27 M4.1 21.99 C9.92 15.62, 15.78 10.08, 20.35 2.31 M2.32 31.03 C9.71 21.77, 16.92 15.26, 26.84 2.04 M1.61 30.99 C9.56 22.23, 18.12 12.39, 27.22 1.28 M-0.46 37.46 C9.3 30.19, 15.5 20.68, 32.05 1.37 M0.5 36.92 C11.28 25.37, 22.13 12.14, 32.41 1.92 M5.11 39.64 C11.78 31.76, 18.3 24.98, 35.09 2.08 M3.32 41.05 C16.19 25.75, 29.48 11.74, 36.8 3.18 M4.01 44.42 C18.15 31.99, 28.11 18.14, 41.54 2.01 M4.88 44.1 C19.24 28.56, 32.11 14.7, 41.4 2.84 M7.32 46.1 C16.87 39.29, 25.04 26.53, 45.49 4.25 M8.79 47.87 C17.3 37.13, 27.14 25.38, 44.56 5.08 M11.8 51.29 C21.78 38.84, 33.13 27.83, 48.23 9.04 M9.41 51.26 C22.91 37.92, 35.2 23.03, 47.96 8.31 M13.29 56.18 C26.96 39.27, 40.17 23.53, 49.72 9.49 M10.59 55.74 C20.86 45.88, 30.85 34.34, 50.48 10.28 M14.71 56.61 C24.05 48.38, 31.29 36.13, 55.41 11.97 M16.01 56.5 C23.95 46.45, 34.1 37.82, 54.29 12.44 M19.06 60.21 C29.14 49.75, 38.01 39.46, 58.27 16.87 M19.51 58.82 C34.32 41.87, 50.59 24.29, 57.32 15.98 M24.66 60.1 C33.45 47.28, 46.09 36.11, 62.26 18.2 M22.69 60.86 C33.11 51.48, 40.91 41.06, 59.99 17.52 M29.34 62.76 C41.43 50.42, 52.41 37.42, 61.83 23.39 M28.46 61.75 C38.53 49.36, 49.85 36.1, 61.07 22.09 M29.86 63.37 C43.78 49.32, 52.35 35.61, 63.21 26.08 M30.74 64.04 C40.75 52.01, 51.87 40.96, 62.34 28.06 M38.58 59.27 C49.21 48.63, 56.5 37.29, 63.95 34.46 M38.59 61.32 C44.19 55.03, 51.01 48.46, 64.51 32.66 M47.16 59.41 C51.52 51.81, 58.01 43.32, 66.38 36.56 M46.1 58.87 C51.13 52.04, 56.55 46.44, 63.88 37.43 M10.94 56.01 C10.94 56.01, 10.94 56.01, 10.94 56.01 M10.94 56.01 C10.94 56.01, 10.94 56.01, 10.94 56.01 M22.08 60.65 C13.44 54.93, 10.97 48.49, 6.37 47.15 M20.31 58.4 C17.81 56.12, 13.73 52.8, 6.04 44.83 M31.87 61.61 C22.38 54.08, 8.97 44.37, 0.18 35.52 M29.55 61.52 C21.66 55.55, 12.13 46.63, 1.73 38 M33.08 61.11 C22.82 50.9, 10.1 38.18, 2.83 32.85 M33.89 59.04 C25.15 52, 15.76 45.34, 2.81 33.22 M36.92 57.83 C27.67 49.05, 23.42 42.33, 2.87 27.28 M38.21 58.55 C25.8 46.52, 13.7 37.23, 3.52 27.69 M43.23 55.11 C31.39 49.23, 23.78 40.5, 1.72 23.46 M42.92 56.25 C33.32 48.41, 24.4 40.03, 2.97 23.6 M44.94 56.34 C38.2 47.01, 28.61 37.99, 4.64 17.48 M45.71 54.57 C30.57 40.96, 16.09 28.2, 4.39 18.05 M50.08 54.49 C37.76 44.38, 26.78 30.78, 6.09 15.14 M51.96 54.79 C41.95 45.8, 33.7 37.9, 5.89 13.62 M54.62 50.48 C44.03 43.99, 32.58 31.06, 7.51 12.77 M54.85 51.6 C45.89 43.95, 36.24 34.49, 8.54 12.23 M57.48 46.56 C41.34 32.63, 21.55 17.23, 12.64 10.24 M56.83 47.64 C42.67 34.95, 28.87 24.55, 11.07 8.39 M59.72 42.62 C42.64 30.44, 29.07 20.84, 14.06 4.47 M58.02 43.95 C45.89 32.39, 32.73 21.03, 14.72 5.81 M59.43 43.12 C42.43 25.85, 27.44 13.26, 16.6 4.93 M61.53 42.05 C50.45 31.86, 39.87 23.13, 18.01 3.08 M60.93 38.64 C52.11 25.46, 40.71 16.07, 21.49 2.63 M61.97 37.68 C47.25 23.58, 33.08 10.71, 21.24 -0.16 M65.48 36.04 C54.34 26.69, 47.09 19.71, 26.85 1.56 M64.55 34.09 C50.73 22.11, 37.99 9.45, 26.35 0.33 M64.94 25.53 C57.24 21.99, 49.44 15.54, 35.6 0.44 M64 27.27 C53.81 18.7, 46.03 11.83, 35.07 2.32 M60.5 21.28 C56.73 13.64, 47.8 7.46, 39.86 4.16 M61.71 21.72 C54.72 14.85, 49.08 8.83, 40.8 2.72" stroke="#ffc9c9" stroke-width="0.5" fill="none"></path><path d="M42.48 2.39 C48.72 4.18, 55.8 10.72, 59.25 16.4 C62.7 22.08, 64.38 30.02, 63.17 36.49 C61.97 42.95, 57.42 50.88, 52.03 55.19 C46.63 59.5, 37.64 62.2, 30.79 62.34 C23.95 62.48, 15.96 60.07, 10.96 56.02 C5.96 51.98, 1.87 44.85, 0.79 38.07 C-0.28 31.29, 1.21 21.43, 4.51 15.32 C7.8 9.21, 13.71 3.55, 20.57 1.41 C27.42 -0.73, 40.9 1.6, 45.65 2.47 C50.39 3.35, 49.23 6.05, 49.03 6.64 M39.47 -0.29 C45.74 0.43, 53.17 6.36, 56.83 11.77 C60.5 17.18, 61.96 25.15, 61.47 32.16 C60.99 39.18, 58.45 48.89, 53.92 53.88 C49.38 58.87, 40.73 61.24, 34.27 62.1 C27.82 62.95, 20.75 62.7, 15.19 59.01 C9.63 55.32, 2.87 46.65, 0.92 39.98 C-1.03 33.3, 0.79 24.83, 3.49 18.98 C6.18 13.12, 11.16 7.67, 17.09 4.84 C23.02 2.02, 35.57 2.81, 39.09 2.03 C42.6 1.24, 38.53 -0.32, 38.18 0.12" stroke="#1e1e1e" stroke-width="1" fill="none"></path></g><g stroke-linecap="round" transform="translate(213.93776825354666 105.32958070755294) rotate(346.62171082844606 38.34059143066406 38.34059143066406)"><path d="M8.91 13.04 C8.91 13.04, 8.91 13.04, 8.91 13.04 M8.91 13.04 C8.91 13.04, 8.91 13.04, 8.91 13.04 M5.23 22.84 C10 17.16, 15.67 14.58, 17.59 8.74 M4.02 23.89 C8.38 19.44, 12.06 15.47, 19.32 7.56 M0.67 34.94 C8.91 23.65, 17.26 15.69, 29.35 1.86 M1.04 34.17 C10.03 23.85, 20.69 10.56, 28.54 3.22 M3.25 37.29 C14.08 27.17, 21.03 14.53, 31.89 1.56 M3.61 37.84 C11.84 27.87, 22.37 17.37, 33.3 3.16 M2.35 42.53 C16.15 29.75, 23.64 17.97, 40.54 0.89 M4.06 43.62 C14.69 31.67, 25.68 18.39, 39.27 2.88 M5.52 46.22 C21.7 28.94, 33.69 12.47, 43.36 2.74 M5.39 47.06 C13.55 37.58, 23.67 27.38, 43.41 3.02 M6.85 51.49 C22 32.99, 37.14 17.3, 49.12 1.59 M5.92 52.31 C20.95 35.67, 35.28 20.83, 49.3 3.28 M8.27 57.79 C22.71 39.34, 37.76 21.8, 53.48 4.83 M8.01 57.06 C26.52 35.51, 43.32 16.39, 53.63 4.87 M7.8 60.51 C20.41 46.59, 35.47 31.38, 55.68 6.84 M8.56 61.29 C26.22 40.92, 45.58 19.68, 56.31 6.76 M13.49 62.98 C28.99 42.75, 48.75 24.23, 58.66 7.53 M12.37 63.45 C21.62 51.64, 31.98 39.52, 60.85 9.37 M16.35 67.88 C31.48 48.68, 43.47 33.48, 62.57 10.67 M15.4 66.99 C28.59 51.44, 42.09 35.62, 63.25 11.05 M20.34 69.21 C28.78 53.55, 42.02 39.23, 67.44 15.45 M18.07 68.53 C36.55 47.78, 53.16 28.96, 67.05 14.83 M21.88 72.14 C40.52 48.53, 57.15 29.05, 70.02 15.03 M21.11 70.83 C38.79 53.04, 55.41 33.25, 69.43 17.07 M25.22 72.57 C38.18 60.81, 49.67 43.85, 74.52 16.61 M24.36 74.54 C41.09 55.95, 56.39 37.43, 72.39 18.74 M27.94 78.68 C37.85 63.29, 52.82 49.5, 75.46 22.27 M28.49 76.88 C45.01 56.28, 61.94 37.07, 74.84 22.39 M34.3 76.25 C47.69 58.1, 64.62 40.03, 76.92 27.22 M31.8 77.12 C43 66.65, 52.73 54.14, 74.3 27.56 M38.83 77.02 C50.69 62.7, 61.99 47.57, 75.49 33.17 M38.08 78.09 C47.44 67.11, 57.02 55.82, 77.12 32.3 M44.28 78.66 C52 63.39, 66.8 52.23, 76.31 38.85 M43.94 76.34 C53.18 66.86, 62.05 56.76, 76.87 38.86 M47.15 74.9 C58.95 65.96, 69.55 53.61, 77.16 42.86 M48.69 77.39 C61.26 63.53, 71.79 49.63, 79.84 42.69 M24.91 74.99 C24.91 74.99, 24.91 74.99, 24.91 74.99 M24.91 74.99 C24.91 74.99, 24.91 74.99, 24.91 74.99 M30.85 74.35 C27.14 72.06, 19.55 68.14, 10.35 57.05 M31.5 74.76 C25.12 71.05, 20.66 66.07, 7.89 55.31 M35.74 75.78 C25.42 64.41, 15.74 58.33, 5.95 48.78 M36.99 75.92 C28.23 67.9, 20.27 59.58, 7.46 49.39 M43.94 74.39 C32.65 63.3, 19.01 52.68, 4.1 40.27 M43.7 74.97 C34.91 68.17, 26.07 59.34, 4.83 40.97 M49.92 75.99 C30.58 59.14, 17.26 45.86, 2.67 32.66 M49.73 74.47 C37.62 64.56, 28.25 56.31, 1.67 34.04 M51.34 73.61 C31.8 56.53, 15.12 39.76, 3.45 31.69 M52.37 73.08 C35.21 56, 16.89 41.98, 2.66 30.42 M56.47 71.09 C42.8 57.6, 28.22 46.92, 4.74 26.03 M54.9 69.24 C44.4 59.74, 32.84 50.92, 4.4 25.32 M58.65 65.98 C46.87 57.75, 35.2 46.12, 5.82 22.81 M59.3 67.31 C47.66 57.47, 34 45.22, 7.28 20.97 M61.19 66.43 C46.7 52.13, 32.57 41.12, 9.93 18.43 M62.59 64.59 C45.02 50.91, 27.87 35.05, 8.74 18.62 M66.07 64.13 C53.57 51.22, 38.1 38.92, 8.89 12.24 M65.83 61.34 C49.15 49.15, 34.92 35.86, 9.31 12.34 M68.42 60.44 C51.52 46.56, 30.95 27.53, 11.9 9.95 M67.91 59.21 C51.75 45.25, 36.37 32.34, 11.67 11.62 M71.88 54.73 C53.09 41.37, 33.89 26.52, 15.55 8.08 M71.35 56.61 C57.4 46.13, 43.63 33.08, 16.07 9.97 M71.62 54.51 C59.12 42.37, 45.02 28.42, 21.17 5.33 M72.56 53.07 C58.78 40.45, 47.39 30.09, 20 7.43 M73.7 47.75 C61.45 34.82, 45.88 26.12, 25.17 6.24 M73.61 48.66 C57.11 32.31, 38.98 19.15, 23.86 4.42 M75.08 46.36 C63.44 34.17, 46.51 22.11, 26.55 4.04 M75.55 43.67 C61.14 32.67, 48.76 21.2, 26.84 3.66 M76.5 39.8 C58.68 25.33, 40.51 7.56, 31.52 -1.76 M77.68 41.39 C60.52 26.36, 44.85 12.45, 30.85 0.07 M80.96 37.32 C65.59 24.53, 50.08 14.24, 38.25 2.12 M79.28 36.45 C62.38 22.25, 46.21 8.07, 37.66 1.24 M79.34 30.2 C62.75 18.67, 49.92 5.49, 43.74 -0.2 M77.69 30.24 C69.8 24.5, 60.39 16.58, 43.07 0.8 M74.19 22.54 C70.26 20.41, 64.33 14.99, 50.82 3.61 M75.36 23.87 C67.09 16.93, 59.13 8.69, 50.27 0.88" stroke="#ffc9c9" stroke-width="0.5" fill="none"></path><path d="M52.68 3.43 C59.55 5.37, 67.09 11.13, 71.1 17.24 C75.1 23.34, 77.36 32.64, 76.71 40.07 C76.05 47.5, 71.99 55.88, 67.17 61.8 C62.35 67.72, 54.83 73.4, 47.79 75.59 C40.74 77.79, 31.75 77.81, 24.89 74.98 C18.03 72.14, 10.75 65.11, 6.63 58.58 C2.51 52.04, -0.17 43.31, 0.16 35.78 C0.49 28.25, 3.83 18.99, 8.61 13.39 C13.39 7.79, 20.46 3.45, 28.86 2.17 C37.26 0.89, 53.08 4.17, 59.01 5.7 C64.94 7.23, 64.71 10.69, 64.44 11.37 M23.67 1.55 C30.02 -1.11, 40.83 0.43, 48.09 2.51 C55.35 4.59, 62.38 8.14, 67.26 14.04 C72.13 19.94, 76.94 30.46, 77.34 37.92 C77.75 45.38, 73.79 52.8, 69.66 58.81 C65.53 64.81, 59.55 71, 52.59 73.96 C45.63 76.91, 35.2 78.32, 27.91 76.54 C20.63 74.76, 13.53 69.61, 8.87 63.27 C4.21 56.93, 0.47 46.08, -0.05 38.5 C-0.56 30.92, 1.58 23.93, 5.81 17.79 C10.03 11.64, 21.97 4.06, 25.31 1.63 C28.65 -0.79, 25.84 2.4, 25.85 3.24" stroke="#1e1e1e" stroke-width="1" fill="none"></path></g><g stroke-linecap="round"><g transform="translate(35.43615690970398 44.43961369136292) rotate(346.62171082844606 391.62158203125 155.1880340576172)"><path d="M0.88 0.58 C131.4 52.37, 653.37 259.37, 783.94 311.13 M-0.12 -0.17 C130.23 51.26, 652.66 257.84, 783.36 309.4" stroke="#1e1e1e" stroke-width="4" fill="none"></path></g><g transform="translate(35.43615690970398 44.43961369136292) rotate(346.62171082844606 391.62158203125 155.1880340576172)"><path d="M754.33 309.75 C765.67 310.46, 776.68 308.57, 783.51 308.9 M753.6 308.85 C760.25 309.33, 764.8 309.17, 782.78 309.48" stroke="#1e1e1e" stroke-width="4" fill="none"></path></g><g transform="translate(35.43615690970398 44.43961369136292) rotate(346.62171082844606 391.62158203125 155.1880340576172)"><path d="M761.87 290.67 C770.48 298.45, 778.73 303.59, 783.51 308.9 M761.14 289.76 C766.14 294.05, 769.17 297.75, 782.78 309.48" stroke="#1e1e1e" stroke-width="4" fill="none"></path></g></g><mask></mask><g stroke-linecap="round" transform="translate(396.6618364251265 47.50926129018208) rotate(346.62171082844606 39.70988464355469 39.70988464355469)"><path d="M56.99 3.67 C63.09 6.04, 68.9 12.08, 72.55 18.26 C76.2 24.43, 78.84 33.32, 78.91 40.72 C78.97 48.12, 76.78 56.87, 72.95 62.67 C69.12 68.46, 62.51 72.87, 55.92 75.48 C49.32 78.09, 40.51 79.5, 33.39 78.31 C26.27 77.12, 18.45 72.91, 13.2 68.36 C7.95 63.8, 3.7 57.78, 1.86 50.99 C0.03 44.21, 0.04 34.53, 2.18 27.64 C4.33 20.75, 9.18 14.11, 14.75 9.67 C20.32 5.23, 27.52 1.22, 35.61 1.01 C43.69 0.81, 57.7 6.38, 63.25 8.46 C68.8 10.54, 69.3 13.08, 68.92 13.49 M53.95 3.38 C60.65 5.13, 66.38 9.27, 70.78 14.73 C75.18 20.19, 79.68 28.64, 80.35 36.14 C81.02 43.65, 78.22 53.17, 74.79 59.76 C71.35 66.34, 66.01 72.6, 59.74 75.65 C53.47 78.71, 44.53 78.6, 37.15 78.08 C29.78 77.56, 21.22 76.67, 15.49 72.52 C9.76 68.38, 5.15 59.99, 2.78 53.21 C0.41 46.42, 0.02 38.56, 1.27 31.79 C2.53 25.01, 5.2 17.58, 10.32 12.57 C15.44 7.55, 24.98 3.26, 31.98 1.72 C38.98 0.17, 49.01 3.22, 52.33 3.27 C55.65 3.32, 51.91 1.61, 51.92 2.02" stroke="#1e1e1e" stroke-width="1" fill="none"></path></g><g stroke-linecap="round" transform="translate(207.96799438324445 16.996623681672872) rotate(346.62171082844606 27.842567443847656 27.842567443847656)"><path d="M24.1 -0.51 C29.61 -1.35, 37.9 1.46, 43.04 5.07 C48.17 8.68, 53.14 15.55, 54.91 21.15 C56.68 26.74, 56.13 33.44, 53.64 38.64 C51.16 43.84, 45.45 49.79, 40.01 52.35 C34.58 54.91, 26.76 55.21, 21.04 53.98 C15.32 52.74, 9.13 49.66, 5.69 44.94 C2.26 40.21, -0.02 31.63, 0.42 25.62 C0.87 19.6, 2.83 12.94, 8.36 8.87 C13.9 4.8, 28.47 2.05, 33.62 1.17 C38.77 0.29, 39.55 3.43, 39.27 3.6 M19.34 0.33 C24.96 -1.5, 34.72 1.12, 40.25 3.59 C45.79 6.05, 49.95 9.95, 52.54 15.13 C55.14 20.3, 57.24 28.48, 55.81 34.62 C54.37 40.75, 48.86 48.24, 43.91 51.94 C38.97 55.65, 32.12 57.78, 26.16 56.84 C20.19 55.9, 12.58 50.59, 8.12 46.3 C3.66 42.02, -0.1 36.99, -0.59 31.14 C-1.08 25.29, 1.56 16.2, 5.16 11.21 C8.77 6.21, 18.61 2.64, 21.03 1.14 C23.45 -0.36, 19.45 1.65, 19.67 2.19" stroke="#1e1e1e" stroke-width="1" fill="none"></path></g><g stroke-linecap="round" transform="translate(690.1776728370893 24.733849619196008) rotate(346.62171082844606 34.68909454345703 34.68909454345703)"><path d="M29.86 0.5 C36.41 -0.53, 45.57 2, 51.68 5.13 C57.79 8.26, 63.65 13.35, 66.51 19.27 C69.38 25.18, 70.2 33.98, 68.87 40.62 C67.53 47.27, 63.4 54.26, 58.5 59.15 C53.61 64.04, 46.18 68.99, 39.48 69.96 C32.78 70.93, 24.26 68.29, 18.31 64.95 C12.35 61.61, 6.55 55.93, 3.73 49.92 C0.92 43.91, 0.3 35.61, 1.39 28.88 C2.48 22.16, 4.79 14.57, 10.25 9.59 C15.72 4.61, 29.53 0.54, 34.2 -0.99 C38.86 -2.51, 38.06 -0.16, 38.24 0.45 M26.92 -0.14 C33.19 -2.18, 43.5 -0.53, 49.81 2.59 C56.12 5.72, 61.42 12.47, 64.77 18.62 C68.11 24.78, 70.61 33.2, 69.89 39.53 C69.16 45.86, 65.2 51.62, 60.43 56.6 C55.66 61.59, 47.86 67.91, 41.25 69.43 C34.64 70.94, 26.8 68.55, 20.78 65.69 C14.76 62.83, 8.72 57.9, 5.11 52.25 C1.5 46.6, -1.68 38.47, -0.88 31.8 C-0.08 25.13, 5.36 17.27, 9.93 12.25 C14.49 7.22, 23.73 3.64, 26.5 1.66 C29.26 -0.33, 26.15 -0.02, 26.5 0.34" stroke="#1e1e1e" stroke-width="1" fill="none"></path></g><g stroke-linecap="round" transform="translate(544.3852442610228 10) rotate(346.62171082844606 46.556427001953125 46.556427001953125)"><path d="M32 3.25 C39.5 -0.05, 50.27 -1.07, 58.38 0.75 C66.48 2.56, 74.97 8.06, 80.65 14.15 C86.33 20.25, 90.86 28.83, 92.43 37.32 C94.01 45.81, 93.23 57.23, 90.08 65.11 C86.94 72.99, 80.44 79.85, 73.56 84.6 C66.67 89.34, 57.1 93.09, 48.79 93.56 C40.47 94.02, 31.1 91.68, 23.68 87.37 C16.26 83.07, 8.25 75.49, 4.28 67.71 C0.31 59.93, -1.06 49.18, -0.16 40.72 C0.75 32.26, 4.05 23.54, 9.7 16.95 C15.35 10.36, 29.67 3.5, 33.76 1.17 C37.84 -1.16, 34 2.15, 34.22 2.97 M32.78 3.43 C40.13 0.71, 51.57 1.14, 59.64 2.94 C67.7 4.74, 75.8 8.06, 81.17 14.24 C86.53 20.41, 90.46 31.62, 91.82 40 C93.19 48.38, 92.54 56.92, 89.37 64.5 C86.2 72.08, 79.99 80.6, 72.8 85.48 C65.61 90.37, 54.54 93.57, 46.25 93.79 C37.96 94.02, 30.19 91.25, 23.08 86.86 C15.97 82.47, 7.56 75.35, 3.6 67.47 C-0.37 59.59, -1.99 48.11, -0.7 39.57 C0.59 31.04, 5.75 22.58, 11.36 16.26 C16.97 9.94, 29.57 3.9, 32.96 1.67 C36.35 -0.57, 31.5 2.08, 31.7 2.84" stroke="#1e1e1e" stroke-width="1" fill="none"></path></g><g stroke-linecap="round" transform="translate(217.44494037978433 312.72594243222267) rotate(346.62171082844606 56.597991943359375 56.597991943359375)"><path d="M63.36 -0.31 C71.7 -0.45, 81.25 4.27, 88.45 9.15 C95.65 14.04, 102.36 21.05, 106.56 29.02 C110.77 36.98, 113.54 48.07, 113.66 56.96 C113.78 65.84, 111.3 74.6, 107.29 82.33 C103.27 90.07, 96.7 98.19, 89.6 103.37 C82.49 108.56, 73.57 112.35, 64.68 113.44 C55.8 114.52, 44.71 113.21, 36.29 109.89 C27.87 106.57, 19.99 100.14, 14.15 93.51 C8.31 86.88, 3.23 78.6, 1.24 70.13 C-0.75 61.66, 0.18 51.07, 2.23 42.7 C4.27 34.33, 7.74 26.43, 13.49 19.9 C19.24 13.37, 28.14 6.59, 36.73 3.51 C45.33 0.44, 59.86 1.62, 65.04 1.43 C70.23 1.24, 67.76 1.49, 67.85 2.38 M78.97 5.74 C86.96 8.46, 95.59 14.08, 101.2 20.85 C106.82 27.63, 111.28 37.56, 112.68 46.41 C114.08 55.26, 112.1 65.49, 109.62 73.96 C107.14 82.44, 103.94 90.98, 97.79 97.23 C91.63 103.48, 81.38 109.15, 72.66 111.47 C63.95 113.8, 53.88 112.96, 45.49 111.19 C37.1 109.42, 29 106.14, 22.3 100.87 C15.61 95.59, 9.22 87.49, 5.3 79.54 C1.38 71.59, -1.67 61.93, -1.2 53.19 C-0.73 44.45, 3.15 34.56, 8.11 27.13 C13.08 19.69, 21.31 13.29, 28.58 8.56 C35.85 3.83, 43.23 -0.65, 51.72 -1.26 C60.21 -1.86, 74.85 3.75, 79.52 4.93 C84.19 6.11, 80.02 5.03, 79.73 5.84" stroke="#1e1e1e" stroke-width="1" fill="none"></path></g><g stroke-linecap="round" transform="translate(443.8214007743959 237.87939747110235) rotate(346.62171082844606 53.859375 53.859375)"><path d="M75.71 4 C83.77 6.7, 92.05 13.73, 97.41 21.22 C102.77 28.7, 106.86 39.87, 107.87 48.91 C108.88 57.95, 107.11 67.33, 103.48 75.48 C99.85 83.63, 93.27 92.37, 86.1 97.81 C78.93 103.25, 69.55 107.2, 60.43 108.12 C51.32 109.04, 39.82 107.24, 31.41 103.33 C23 99.43, 15.25 92.03, 9.98 84.67 C4.71 77.31, 0.57 68.07, -0.21 59.17 C-1 50.27, 1.64 39.33, 5.28 31.28 C8.92 23.23, 14.4 16.07, 21.64 10.85 C28.88 5.63, 38.74 0.33, 48.72 -0.03 C58.7 -0.38, 75.1 6.51, 81.51 8.71 C87.91 10.91, 87.37 12.43, 87.15 13.15 M75.12 5.5 C83.26 8.36, 92.16 14.38, 97.62 21.54 C103.08 28.7, 107.14 39.3, 107.87 48.46 C108.59 57.63, 105.53 68.22, 101.97 76.51 C98.42 84.8, 93.76 92.9, 86.52 98.2 C79.27 103.5, 67.78 107.7, 58.5 108.32 C49.22 108.94, 38.79 105.8, 30.83 101.93 C22.87 98.06, 15.78 92.24, 10.73 85.08 C5.68 77.93, 1.76 67.88, 0.54 58.99 C-0.69 50.1, -0.24 39.92, 3.39 31.74 C7.01 23.56, 14.57 15.11, 22.29 9.92 C30 4.73, 40.98 1.7, 49.69 0.6 C58.4 -0.5, 70.27 2.46, 74.52 3.31 C78.78 4.16, 75.29 4.65, 75.23 5.68" stroke="#1e1e1e" stroke-width="1" fill="none"></path></g><g stroke-linecap="round" transform="translate(130.23690570940568 189.42639941849754) rotate(346.62171082844606 36.51484680175781 36.51484680175781)"><path d="M24.6 1.19 C30.91 -1.27, 40.65 0.23, 47.54 2.41 C54.43 4.6, 61.63 8.68, 65.95 14.31 C70.27 19.95, 73.24 28.94, 73.46 36.24 C73.68 43.53, 71.54 52.25, 67.27 58.07 C62.99 63.9, 54.77 69.13, 47.81 71.2 C40.86 73.27, 32.36 72.67, 25.54 70.48 C18.72 68.3, 11.04 63.77, 6.9 58.09 C2.76 52.42, 0.84 43.44, 0.7 36.44 C0.57 29.45, 0.72 22.22, 6.11 16.13 C11.51 10.04, 27.45 2.31, 33.06 -0.11 C38.68 -2.52, 39.88 0.98, 39.8 1.65 M52.01 2.22 C58.14 4.6, 64.34 13.4, 67.82 19.76 C71.3 26.13, 73.61 33.42, 72.9 40.41 C72.18 47.4, 68.66 56.26, 63.55 61.71 C58.45 67.15, 49.19 71.65, 42.27 73.08 C35.34 74.5, 28.44 73.29, 21.99 70.28 C15.54 67.26, 7.37 61.55, 3.57 54.97 C-0.22 48.39, -1.92 38.11, -0.78 30.8 C0.36 23.49, 5.27 16.21, 10.39 11.11 C15.51 6.01, 23.21 1.5, 29.94 0.2 C36.68 -1.09, 47.15 2.73, 50.79 3.33 C54.44 3.93, 51.62 3.18, 51.81 3.81" stroke="#1e1e1e" stroke-width="1" fill="none"></path></g><g stroke-linecap="round" transform="translate(193.62877445037992 172.97582809891924) rotate(346.62171082844606 7.3029632568359375 7.3029632568359375)"><path d="M5.66 1.16 C7.1 0.76, 9.09 -0.09, 10.53 0.46 C11.96 1.01, 13.49 2.95, 14.26 4.49 C15.04 6.03, 15.73 8.21, 15.18 9.69 C14.64 11.16, 12.42 12.7, 10.97 13.35 C9.52 14.01, 8.01 13.81, 6.48 13.61 C4.95 13.4, 2.73 13.18, 1.78 12.13 C0.82 11.09, 0.91 8.73, 0.75 7.33 C0.58 5.94, -0.21 5.02, 0.77 3.76 C1.76 2.5, 5.75 0.26, 6.65 -0.22 C7.56 -0.7, 6.34 0.68, 6.2 0.87 M10.35 -0.56 C11.5 -0.09, 12.54 3.55, 13.23 5.06 C13.93 6.58, 14.73 7.11, 14.51 8.52 C14.28 9.92, 13.4 12.35, 11.91 13.48 C10.42 14.6, 7.03 15.31, 5.57 15.26 C4.11 15.21, 4.25 14.26, 3.17 13.18 C2.09 12.1, -0.42 10.66, -0.91 8.8 C-1.39 6.93, -0.87 3.47, 0.27 1.98 C1.41 0.49, 4.19 0.14, 5.92 -0.15 C7.65 -0.43, 10.14 0.12, 10.66 0.26 C11.19 0.39, 9.15 0.54, 9.06 0.67" stroke="#1e1e1e" stroke-width="1" fill="none"></path></g><g stroke-linecap="round" transform="translate(318.1199992409454 198.22661498071068) rotate(346.62171082844606 36.51483154296875 36.51483154296875)"><path d="M21.91 3.07 C27.9 -0.22, 37.37 -0.35, 44.44 1.25 C51.51 2.86, 59.74 7.46, 64.35 12.71 C68.96 17.97, 71.54 25.96, 72.12 32.79 C72.69 39.62, 71.31 47.6, 67.78 53.69 C64.25 59.78, 57.28 66.38, 50.94 69.33 C44.6 72.29, 36.71 72.73, 29.73 71.42 C22.74 70.12, 13.84 66.71, 9.03 61.49 C4.22 56.27, 1.68 47.17, 0.88 40.1 C0.08 33.03, 0.24 25.43, 4.23 19.06 C8.22 12.69, 20.57 4.72, 24.83 1.88 C29.09 -0.96, 29.4 1.45, 29.77 2.01 M21.77 2.47 C27.96 -0.86, 37.69 -0.75, 44.49 0.96 C51.29 2.67, 57.65 7.32, 62.55 12.73 C67.44 18.13, 73.09 26.23, 73.87 33.37 C74.65 40.52, 71.16 49.72, 67.24 55.61 C63.31 61.5, 56.64 66.03, 50.35 68.74 C44.05 71.45, 36.24 73.22, 29.46 71.86 C22.68 70.49, 14.76 65.82, 9.66 60.55 C4.57 55.28, -0.29 47.33, -1.09 40.23 C-1.88 33.14, 0.88 24.1, 4.9 17.97 C8.92 11.85, 20.4 6.07, 23.01 3.49 C25.63 0.91, 20.62 1.97, 20.61 2.48" stroke="#1e1e1e" stroke-width="1" fill="none"></path></g></svg>